<?xml version="1.0" encoding="UTF-8"?>
<score-partwise version="4.0">
<part-list>
  <score-part id="accomp">
  <part-name>accomp</part-name>
</score-part>
<score-part id="melody">
  <part-name>melody</part-name>
</score-part>
<score-part id="bass">
  <part-name>bass</part-name>
</score-part>
</part-list>
<part id="accomp">
  <measure number="1">
<attributes>
<divisions>48</divisions>

  </attributes>
<note>
  <pitch>
    <step>G</step>
    <alter>1</alter>
    <octave>3</octave>
    </pitch>
  <duration>16</duration>
  
  <voice>1</voice>
  <type>eighth</type>
  
  <time-modification>
  <actual-notes>3</actual-notes>
  <normal-notes>2</normal-notes>
</time-modification>
  <stem>down</stem>
  <notations>
    
  </notations>
  </note>
<note>
  <pitch>
    <step>C</step>
    <alter>1</alter>
    <octave>4</octave>
    </pitch>
  <duration>16</duration>
  
  <voice>1</voice>
  <type>eighth</type>
  
  <time-modification>
  <actual-notes>3</actual-notes>
  <normal-notes>2</normal-notes>
</time-modification>
  <stem>down</stem>
  <notations>
    
  </notations>
  </note>
<note>
  <pitch>
    <step>E</step>
    <alter>0</alter>
    <octave>4</octave>
    </pitch>
  <duration>16</duration>
  
  <voice>1</voice>
  <type>eighth</type>
  
  <time-modification>
  <actual-notes>3</actual-notes>
  <normal-notes>2</normal-notes>
</time-modification>
  <stem>down</stem>
  <notations>
    
  </notations>
  </note>
<note>
  <pitch>
    <step>G</step>
    <alter>1</alter>
    <octave>3</octave>
    </pitch>
  <duration>16</duration>
  
  <voice>1</voice>
  <type>eighth</type>
  
  <time-modification>
  <actual-notes>3</actual-notes>
  <normal-notes>2</normal-notes>
</time-modification>
  <stem>down</stem>
  <notations>
    
  </notations>
  </note>
<note>
  <pitch>
    <step>C</step>
    <alter>1</alter>
    <octave>4</octave>
    </pitch>
  <duration>16</duration>
  
  <voice>1</voice>
  <type>eighth</type>
  
  <time-modification>
  <actual-notes>3</actual-notes>
  <normal-notes>2</normal-notes>
</time-modification>
  <stem>down</stem>
  <notations>
    
  </notations>
  </note>
<note>
  <pitch>
    <step>E</step>
    <alter>0</alter>
    <octave>4</octave>
    </pitch>
  <duration>16</duration>
  
  <voice>1</voice>
  <type>eighth</type>
  
  <time-modification>
  <actual-notes>3</actual-notes>
  <normal-notes>2</normal-notes>
</time-modification>
  <stem>down</stem>
  <notations>
    
  </notations>
  </note>
<note>
  <pitch>
    <step>G</step>
    <alter>1</alter>
    <octave>3</octave>
    </pitch>
  <duration>16</duration>
  
  <voice>1</voice>
  <type>eighth</type>
  
  <time-modification>
  <actual-notes>3</actual-notes>
  <normal-notes>2</normal-notes>
</time-modification>
  <stem>down</stem>
  <notations>
    
  </notations>
  </note>
<note>
  <pitch>
    <step>C</step>
    <alter>1</alter>
    <octave>4</octave>
    </pitch>
  <duration>16</duration>
  
  <voice>1</voice>
  <type>eighth</type>
  
  <time-modification>
  <actual-notes>3</actual-notes>
  <normal-notes>2</normal-notes>
</time-modification>
  <stem>down</stem>
  <notations>
    
  </notations>
  </note>
<note>
  <pitch>
    <step>E</step>
    <alter>0</alter>
    <octave>4</octave>
    </pitch>
  <duration>16</duration>
  
  <voice>1</voice>
  <type>eighth</type>
  
  <time-modification>
  <actual-notes>3</actual-notes>
  <normal-notes>2</normal-notes>
</time-modification>
  <stem>down</stem>
  <notations>
    
  </notations>
  </note>
<note>
  <pitch>
    <step>G</step>
    <alter>1</alter>
    <octave>3</octave>
    </pitch>
  <duration>16</duration>
  
  <voice>1</voice>
  <type>eighth</type>
  
  <time-modification>
  <actual-notes>3</actual-notes>
  <normal-notes>2</normal-notes>
</time-modification>
  <stem>down</stem>
  <notations>
    
  </notations>
  </note>
<note>
  <pitch>
    <step>C</step>
    <alter>1</alter>
    <octave>4</octave>
    </pitch>
  <duration>16</duration>
  
  <voice>1</voice>
  <type>eighth</type>
  
  <time-modification>
  <actual-notes>3</actual-notes>
  <normal-notes>2</normal-notes>
</time-modification>
  <stem>down</stem>
  <notations>
    
  </notations>
  </note>
<note>
  <pitch>
    <step>E</step>
    <alter>0</alter>
    <octave>4</octave>
    </pitch>
  <duration>16</duration>
  
  <voice>1</voice>
  <type>eighth</type>
  
  <time-modification>
  <actual-notes>3</actual-notes>
  <normal-notes>2</normal-notes>
</time-modification>
  <stem>down</stem>
  <notations>
    
  </notations>
  </note>
</measure>
<measure number="2">
<attributes>
<divisions>48</divisions>

  </attributes>
<note>
  <pitch>
    <step>G</step>
    <alter>1</alter>
    <octave>3</octave>
    </pitch>
  <duration>16</duration>
  
  <voice>1</voice>
  <type>eighth</type>
  
  <time-modification>
  <actual-notes>3</actual-notes>
  <normal-notes>2</normal-notes>
</time-modification>
  <stem>down</stem>
  <notations>
    
  </notations>
  </note>
<note>
  <pitch>
    <step>C</step>
    <alter>1</alter>
    <octave>4</octave>
    </pitch>
  <duration>16</duration>
  
  <voice>1</voice>
  <type>eighth</type>
  
  <time-modification>
  <actual-notes>3</actual-notes>
  <normal-notes>2</normal-notes>
</time-modification>
  <stem>down</stem>
  <notations>
    
  </notations>
  </note>
<note>
  <pitch>
    <step>E</step>
    <alter>0</alter>
    <octave>4</octave>
    </pitch>
  <duration>16</duration>
  
  <voice>1</voice>
  <type>eighth</type>
  
  <time-modification>
  <actual-notes>3</actual-notes>
  <normal-notes>2</normal-notes>
</time-modification>
  <stem>down</stem>
  <notations>
    
  </notations>
  </note>
<note>
  <pitch>
    <step>G</step>
    <alter>1</alter>
    <octave>3</octave>
    </pitch>
  <duration>16</duration>
  
  <voice>1</voice>
  <type>eighth</type>
  
  <time-modification>
  <actual-notes>3</actual-notes>
  <normal-notes>2</normal-notes>
</time-modification>
  <stem>down</stem>
  <notations>
    
  </notations>
  </note>
<note>
  <pitch>
    <step>C</step>
    <alter>1</alter>
    <octave>4</octave>
    </pitch>
  <duration>16</duration>
  
  <voice>1</voice>
  <type>eighth</type>
  
  <time-modification>
  <actual-notes>3</actual-notes>
  <normal-notes>2</normal-notes>
</time-modification>
  <stem>down</stem>
  <notations>
    
  </notations>
  </note>
<note>
  <pitch>
    <step>E</step>
    <alter>0</alter>
    <octave>4</octave>
    </pitch>
  <duration>16</duration>
  
  <voice>1</voice>
  <type>eighth</type>
  
  <time-modification>
  <actual-notes>3</actual-notes>
  <normal-notes>2</normal-notes>
</time-modification>
  <stem>down</stem>
  <notations>
    
  </notations>
  </note>
<note>
  <pitch>
    <step>G</step>
    <alter>1</alter>
    <octave>3</octave>
    </pitch>
  <duration>16</duration>
  
  <voice>1</voice>
  <type>eighth</type>
  
  <time-modification>
  <actual-notes>3</actual-notes>
  <normal-notes>2</normal-notes>
</time-modification>
  <stem>down</stem>
  <notations>
    
  </notations>
  </note>
<note>
  <pitch>
    <step>C</step>
    <alter>1</alter>
    <octave>4</octave>
    </pitch>
  <duration>16</duration>
  
  <voice>1</voice>
  <type>eighth</type>
  
  <time-modification>
  <actual-notes>3</actual-notes>
  <normal-notes>2</normal-notes>
</time-modification>
  <stem>down</stem>
  <notations>
    
  </notations>
  </note>
<note>
  <pitch>
    <step>E</step>
    <alter>0</alter>
    <octave>4</octave>
    </pitch>
  <duration>16</duration>
  
  <voice>1</voice>
  <type>eighth</type>
  
  <time-modification>
  <actual-notes>3</actual-notes>
  <normal-notes>2</normal-notes>
</time-modification>
  <stem>down</stem>
  <notations>
    
  </notations>
  </note>
<note>
  <pitch>
    <step>G</step>
    <alter>1</alter>
    <octave>3</octave>
    </pitch>
  <duration>16</duration>
  
  <voice>1</voice>
  <type>eighth</type>
  
  <time-modification>
  <actual-notes>3</actual-notes>
  <normal-notes>2</normal-notes>
</time-modification>
  <stem>down</stem>
  <notations>
    
  </notations>
  </note>
<note>
  <pitch>
    <step>C</step>
    <alter>1</alter>
    <octave>4</octave>
    </pitch>
  <duration>16</duration>
  
  <voice>1</voice>
  <type>eighth</type>
  
  <time-modification>
  <actual-notes>3</actual-notes>
  <normal-notes>2</normal-notes>
</time-modification>
  <stem>down</stem>
  <notations>
    
  </notations>
  </note>
<note>
  <pitch>
    <step>E</step>
    <alter>0</alter>
    <octave>4</octave>
    </pitch>
  <duration>16</duration>
  
  <voice>1</voice>
  <type>eighth</type>
  
  <time-modification>
  <actual-notes>3</actual-notes>
  <normal-notes>2</normal-notes>
</time-modification>
  <stem>down</stem>
  <notations>
    
  </notations>
  </note>
</measure>
<measure number="3">
<attributes>
<divisions>48</divisions>

  </attributes>
<note>
  <pitch>
    <step>A</step>
    <alter>0</alter>
    <octave>3</octave>
    </pitch>
  <duration>16</duration>
  
  <voice>1</voice>
  <type>eighth</type>
  
  <time-modification>
  <actual-notes>3</actual-notes>
  <normal-notes>2</normal-notes>
</time-modification>
  <stem>down</stem>
  <notations>
    
  </notations>
  </note>
<note>
  <pitch>
    <step>C</step>
    <alter>1</alter>
    <octave>4</octave>
    </pitch>
  <duration>16</duration>
  
  <voice>1</voice>
  <type>eighth</type>
  
  <time-modification>
  <actual-notes>3</actual-notes>
  <normal-notes>2</normal-notes>
</time-modification>
  <stem>down</stem>
  <notations>
    
  </notations>
  </note>
<note>
  <pitch>
    <step>E</step>
    <alter>0</alter>
    <octave>4</octave>
    </pitch>
  <duration>16</duration>
  
  <voice>1</voice>
  <type>eighth</type>
  
  <time-modification>
  <actual-notes>3</actual-notes>
  <normal-notes>2</normal-notes>
</time-modification>
  <stem>down</stem>
  <notations>
    
  </notations>
  </note>
<note>
  <pitch>
    <step>A</step>
    <alter>0</alter>
    <octave>3</octave>
    </pitch>
  <duration>16</duration>
  
  <voice>1</voice>
  <type>eighth</type>
  
  <time-modification>
  <actual-notes>3</actual-notes>
  <normal-notes>2</normal-notes>
</time-modification>
  <stem>down</stem>
  <notations>
    
  </notations>
  </note>
<note>
  <pitch>
    <step>C</step>
    <alter>1</alter>
    <octave>4</octave>
    </pitch>
  <duration>16</duration>
  
  <voice>1</voice>
  <type>eighth</type>
  
  <time-modification>
  <actual-notes>3</actual-notes>
  <normal-notes>2</normal-notes>
</time-modification>
  <stem>down</stem>
  <notations>
    
  </notations>
  </note>
<note>
  <pitch>
    <step>E</step>
    <alter>0</alter>
    <octave>4</octave>
    </pitch>
  <duration>16</duration>
  
  <voice>1</voice>
  <type>eighth</type>
  
  <time-modification>
  <actual-notes>3</actual-notes>
  <normal-notes>2</normal-notes>
</time-modification>
  <stem>down</stem>
  <notations>
    
  </notations>
  </note>
<note>
  <pitch>
    <step>A</step>
    <alter>0</alter>
    <octave>3</octave>
    </pitch>
  <duration>16</duration>
  
  <voice>1</voice>
  <type>eighth</type>
  
  <time-modification>
  <actual-notes>3</actual-notes>
  <normal-notes>2</normal-notes>
</time-modification>
  <stem>down</stem>
  <notations>
    
  </notations>
  </note>
<note>
  <pitch>
    <step>D</step>
    <alter>0</alter>
    <octave>4</octave>
    </pitch>
  <duration>16</duration>
  
  <voice>1</voice>
  <type>eighth</type>
  
  <time-modification>
  <actual-notes>3</actual-notes>
  <normal-notes>2</normal-notes>
</time-modification>
  <stem>down</stem>
  <notations>
    
  </notations>
  </note>
<note>
  <pitch>
    <step>F</step>
    <alter>1</alter>
    <octave>4</octave>
    </pitch>
  <duration>16</duration>
  
  <voice>1</voice>
  <type>eighth</type>
  
  <time-modification>
  <actual-notes>3</actual-notes>
  <normal-notes>2</normal-notes>
</time-modification>
  <stem>down</stem>
  <notations>
    
  </notations>
  </note>
<note>
  <pitch>
    <step>A</step>
    <alter>0</alter>
    <octave>3</octave>
    </pitch>
  <duration>16</duration>
  
  <voice>1</voice>
  <type>eighth</type>
  
  <time-modification>
  <actual-notes>3</actual-notes>
  <normal-notes>2</normal-notes>
</time-modification>
  <stem>down</stem>
  <notations>
    
  </notations>
  </note>
<note>
  <pitch>
    <step>D</step>
    <alter>0</alter>
    <octave>4</octave>
    </pitch>
  <duration>16</duration>
  
  <voice>1</voice>
  <type>eighth</type>
  
  <time-modification>
  <actual-notes>3</actual-notes>
  <normal-notes>2</normal-notes>
</time-modification>
  <stem>down</stem>
  <notations>
    
  </notations>
  </note>
<note>
  <pitch>
    <step>F</step>
    <alter>1</alter>
    <octave>4</octave>
    </pitch>
  <duration>16</duration>
  
  <voice>1</voice>
  <type>eighth</type>
  
  <time-modification>
  <actual-notes>3</actual-notes>
  <normal-notes>2</normal-notes>
</time-modification>
  <stem>down</stem>
  <notations>
    
  </notations>
  </note>
</measure>
<measure number="4">
<attributes>
<divisions>48</divisions>

  </attributes>
<note>
  <pitch>
    <step>G</step>
    <alter>1</alter>
    <octave>3</octave>
    </pitch>
  <duration>16</duration>
  
  <voice>1</voice>
  <type>eighth</type>
  
  <time-modification>
  <actual-notes>3</actual-notes>
  <normal-notes>2</normal-notes>
</time-modification>
  <stem>down</stem>
  <notations>
    
  </notations>
  </note>
<note>
  <pitch>
    <step>B</step>
    <alter>1</alter>
    <octave>3</octave>
    </pitch>
  <duration>16</duration>
  
  <voice>1</voice>
  <type>eighth</type>
  
  <time-modification>
  <actual-notes>3</actual-notes>
  <normal-notes>2</normal-notes>
</time-modification>
  <stem>down</stem>
  <notations>
    
  </notations>
  </note>
<note>
  <pitch>
    <step>F</step>
    <alter>1</alter>
    <octave>4</octave>
    </pitch>
  <duration>16</duration>
  
  <voice>1</voice>
  <type>eighth</type>
  
  <time-modification>
  <actual-notes>3</actual-notes>
  <normal-notes>2</normal-notes>
</time-modification>
  <stem>down</stem>
  <notations>
    
  </notations>
  </note>
<note>
  <pitch>
    <step>G</step>
    <alter>1</alter>
    <octave>3</octave>
    </pitch>
  <duration>16</duration>
  
  <voice>1</voice>
  <type>eighth</type>
  
  <time-modification>
  <actual-notes>3</actual-notes>
  <normal-notes>2</normal-notes>
</time-modification>
  <stem>down</stem>
  <notations>
    
  </notations>
  </note>
<note>
  <pitch>
    <step>C</step>
    <alter>1</alter>
    <octave>4</octave>
    </pitch>
  <duration>16</duration>
  
  <voice>1</voice>
  <type>eighth</type>
  
  <time-modification>
  <actual-notes>3</actual-notes>
  <normal-notes>2</normal-notes>
</time-modification>
  <stem>down</stem>
  <notations>
    
  </notations>
  </note>
<note>
  <pitch>
    <step>E</step>
    <alter>0</alter>
    <octave>4</octave>
    </pitch>
  <duration>16</duration>
  
  <voice>1</voice>
  <type>eighth</type>
  
  <time-modification>
  <actual-notes>3</actual-notes>
  <normal-notes>2</normal-notes>
</time-modification>
  <stem>down</stem>
  <notations>
    
  </notations>
  </note>
<note>
  <pitch>
    <step>G</step>
    <alter>1</alter>
    <octave>3</octave>
    </pitch>
  <duration>16</duration>
  
  <voice>1</voice>
  <type>eighth</type>
  
  <time-modification>
  <actual-notes>3</actual-notes>
  <normal-notes>2</normal-notes>
</time-modification>
  <stem>down</stem>
  <notations>
    
  </notations>
  </note>
<note>
  <pitch>
    <step>C</step>
    <alter>1</alter>
    <octave>4</octave>
    </pitch>
  <duration>16</duration>
  
  <voice>1</voice>
  <type>eighth</type>
  
  <time-modification>
  <actual-notes>3</actual-notes>
  <normal-notes>2</normal-notes>
</time-modification>
  <stem>down</stem>
  <notations>
    
  </notations>
  </note>
<note>
  <pitch>
    <step>D</step>
    <alter>1</alter>
    <octave>4</octave>
    </pitch>
  <duration>16</duration>
  
  <voice>1</voice>
  <type>eighth</type>
  
  <time-modification>
  <actual-notes>3</actual-notes>
  <normal-notes>2</normal-notes>
</time-modification>
  <stem>down</stem>
  <notations>
    
  </notations>
  </note>
<note>
  <pitch>
    <step>F</step>
    <alter>1</alter>
    <octave>3</octave>
    </pitch>
  <duration>16</duration>
  
  <voice>1</voice>
  <type>eighth</type>
  
  <time-modification>
  <actual-notes>3</actual-notes>
  <normal-notes>2</normal-notes>
</time-modification>
  <stem>down</stem>
  <notations>
    
  </notations>
  </note>
<note>
  <pitch>
    <step>B</step>
    <alter>1</alter>
    <octave>3</octave>
    </pitch>
  <duration>16</duration>
  
  <voice>1</voice>
  <type>eighth</type>
  
  <time-modification>
  <actual-notes>3</actual-notes>
  <normal-notes>2</normal-notes>
</time-modification>
  <stem>down</stem>
  <notations>
    
  </notations>
  </note>
<note>
  <pitch>
    <step>D</step>
    <alter>1</alter>
    <octave>4</octave>
    </pitch>
  <duration>16</duration>
  
  <voice>1</voice>
  <type>eighth</type>
  
  <time-modification>
  <actual-notes>3</actual-notes>
  <normal-notes>2</normal-notes>
</time-modification>
  <stem>down</stem>
  <notations>
    
  </notations>
  </note>
</measure>
<measure number="5">
<attributes>
<divisions>48</divisions>

  </attributes>
<note>
  <pitch>
    <step>E</step>
    <alter>0</alter>
    <octave>3</octave>
    </pitch>
  <duration>16</duration>
  
  <voice>1</voice>
  <type>eighth</type>
  
  <time-modification>
  <actual-notes>3</actual-notes>
  <normal-notes>2</normal-notes>
</time-modification>
  <stem>down</stem>
  <notations>
    
  </notations>
  </note>
<note>
  <pitch>
    <step>G</step>
    <alter>1</alter>
    <octave>3</octave>
    </pitch>
  <duration>16</duration>
  
  <voice>1</voice>
  <type>eighth</type>
  
  <time-modification>
  <actual-notes>3</actual-notes>
  <normal-notes>2</normal-notes>
</time-modification>
  <stem>down</stem>
  <notations>
    
  </notations>
  </note>
<note>
  <pitch>
    <step>C</step>
    <alter>1</alter>
    <octave>4</octave>
    </pitch>
  <duration>16</duration>
  
  <voice>1</voice>
  <type>eighth</type>
  
  <time-modification>
  <actual-notes>3</actual-notes>
  <normal-notes>2</normal-notes>
</time-modification>
  <stem>down</stem>
  <notations>
    
  </notations>
  </note>
<note>
  <pitch>
    <step>G</step>
    <alter>1</alter>
    <octave>3</octave>
    </pitch>
  <duration>16</duration>
  
  <voice>1</voice>
  <type>eighth</type>
  
  <time-modification>
  <actual-notes>3</actual-notes>
  <normal-notes>2</normal-notes>
</time-modification>
  <stem>down</stem>
  <notations>
    
  </notations>
  </note>
<note>
  <pitch>
    <step>C</step>
    <alter>1</alter>
    <octave>4</octave>
    </pitch>
  <duration>16</duration>
  
  <voice>1</voice>
  <type>eighth</type>
  
  <time-modification>
  <actual-notes>3</actual-notes>
  <normal-notes>2</normal-notes>
</time-modification>
  <stem>down</stem>
  <notations>
    
  </notations>
  </note>
<note>
  <pitch>
    <step>E</step>
    <alter>0</alter>
    <octave>4</octave>
    </pitch>
  <duration>16</duration>
  
  <voice>1</voice>
  <type>eighth</type>
  
  <time-modification>
  <actual-notes>3</actual-notes>
  <normal-notes>2</normal-notes>
</time-modification>
  <stem>down</stem>
  <notations>
    
  </notations>
  </note>
<note>
  <pitch>
    <step>G</step>
    <alter>1</alter>
    <octave>3</octave>
    </pitch>
  <duration>16</duration>
  
  <voice>1</voice>
  <type>eighth</type>
  
  <time-modification>
  <actual-notes>3</actual-notes>
  <normal-notes>2</normal-notes>
</time-modification>
  <stem>down</stem>
  <notations>
    
  </notations>
  </note>
<note>
  <pitch>
    <step>C</step>
    <alter>1</alter>
    <octave>4</octave>
    </pitch>
  <duration>16</duration>
  
  <voice>1</voice>
  <type>eighth</type>
  
  <time-modification>
  <actual-notes>3</actual-notes>
  <normal-notes>2</normal-notes>
</time-modification>
  <stem>down</stem>
  <notations>
    
  </notations>
  </note>
<note>
  <pitch>
    <step>E</step>
    <alter>0</alter>
    <octave>4</octave>
    </pitch>
  <duration>16</duration>
  
  <voice>1</voice>
  <type>eighth</type>
  
  <time-modification>
  <actual-notes>3</actual-notes>
  <normal-notes>2</normal-notes>
</time-modification>
  <stem>down</stem>
  <notations>
    
  </notations>
  </note>
<note>
  <pitch>
    <step>G</step>
    <alter>1</alter>
    <octave>3</octave>
    </pitch>
  <duration>16</duration>
  
  <voice>1</voice>
  <type>eighth</type>
  
  <time-modification>
  <actual-notes>3</actual-notes>
  <normal-notes>2</normal-notes>
</time-modification>
  <stem>down</stem>
  <notations>
    
  </notations>
  </note>
<note>
  <pitch>
    <step>C</step>
    <alter>1</alter>
    <octave>4</octave>
    </pitch>
  <duration>16</duration>
  
  <voice>1</voice>
  <type>eighth</type>
  
  <time-modification>
  <actual-notes>3</actual-notes>
  <normal-notes>2</normal-notes>
</time-modification>
  <stem>down</stem>
  <notations>
    
  </notations>
  </note>
<note>
  <pitch>
    <step>E</step>
    <alter>0</alter>
    <octave>4</octave>
    </pitch>
  <duration>16</duration>
  
  <voice>1</voice>
  <type>eighth</type>
  
  <time-modification>
  <actual-notes>3</actual-notes>
  <normal-notes>2</normal-notes>
</time-modification>
  <stem>down</stem>
  <notations>
    
  </notations>
  </note>
</measure>
<measure number="6">
<attributes>
<divisions>48</divisions>

  </attributes>
<note>
  <pitch>
    <step>G</step>
    <alter>1</alter>
    <octave>3</octave>
    </pitch>
  <duration>16</duration>
  
  <voice>1</voice>
  <type>eighth</type>
  
  <time-modification>
  <actual-notes>3</actual-notes>
  <normal-notes>2</normal-notes>
</time-modification>
  <stem>down</stem>
  <notations>
    
  </notations>
  </note>
<note>
  <pitch>
    <step>D</step>
    <alter>1</alter>
    <octave>4</octave>
    </pitch>
  <duration>16</duration>
  
  <voice>1</voice>
  <type>eighth</type>
  
  <time-modification>
  <actual-notes>3</actual-notes>
  <normal-notes>2</normal-notes>
</time-modification>
  <stem>down</stem>
  <notations>
    
  </notations>
  </note>
<note>
  <pitch>
    <step>F</step>
    <alter>1</alter>
    <octave>4</octave>
    </pitch>
  <duration>16</duration>
  
  <voice>1</voice>
  <type>eighth</type>
  
  <time-modification>
  <actual-notes>3</actual-notes>
  <normal-notes>2</normal-notes>
</time-modification>
  <stem>down</stem>
  <notations>
    
  </notations>
  </note>
<note>
  <pitch>
    <step>G</step>
    <alter>1</alter>
    <octave>3</octave>
    </pitch>
  <duration>16</duration>
  
  <voice>1</voice>
  <type>eighth</type>
  
  <time-modification>
  <actual-notes>3</actual-notes>
  <normal-notes>2</normal-notes>
</time-modification>
  <stem>down</stem>
  <notations>
    
  </notations>
  </note>
<note>
  <pitch>
    <step>D</step>
    <alter>1</alter>
    <octave>4</octave>
    </pitch>
  <duration>16</duration>
  
  <voice>1</voice>
  <type>eighth</type>
  
  <time-modification>
  <actual-notes>3</actual-notes>
  <normal-notes>2</normal-notes>
</time-modification>
  <stem>down</stem>
  <notations>
    
  </notations>
  </note>
<note>
  <pitch>
    <step>F</step>
    <alter>1</alter>
    <octave>4</octave>
    </pitch>
  <duration>16</duration>
  
  <voice>1</voice>
  <type>eighth</type>
  
  <time-modification>
  <actual-notes>3</actual-notes>
  <normal-notes>2</normal-notes>
</time-modification>
  <stem>down</stem>
  <notations>
    
  </notations>
  </note>
<note>
  <pitch>
    <step>G</step>
    <alter>1</alter>
    <octave>3</octave>
    </pitch>
  <duration>16</duration>
  
  <voice>1</voice>
  <type>eighth</type>
  
  <time-modification>
  <actual-notes>3</actual-notes>
  <normal-notes>2</normal-notes>
</time-modification>
  <stem>down</stem>
  <notations>
    
  </notations>
  </note>
<note>
  <pitch>
    <step>D</step>
    <alter>1</alter>
    <octave>4</octave>
    </pitch>
  <duration>16</duration>
  
  <voice>1</voice>
  <type>eighth</type>
  
  <time-modification>
  <actual-notes>3</actual-notes>
  <normal-notes>2</normal-notes>
</time-modification>
  <stem>down</stem>
  <notations>
    
  </notations>
  </note>
<note>
  <pitch>
    <step>F</step>
    <alter>1</alter>
    <octave>4</octave>
    </pitch>
  <duration>16</duration>
  
  <voice>1</voice>
  <type>eighth</type>
  
  <time-modification>
  <actual-notes>3</actual-notes>
  <normal-notes>2</normal-notes>
</time-modification>
  <stem>down</stem>
  <notations>
    
  </notations>
  </note>
<note>
  <pitch>
    <step>G</step>
    <alter>1</alter>
    <octave>3</octave>
    </pitch>
  <duration>16</duration>
  
  <voice>1</voice>
  <type>eighth</type>
  
  <time-modification>
  <actual-notes>3</actual-notes>
  <normal-notes>2</normal-notes>
</time-modification>
  <stem>down</stem>
  <notations>
    
  </notations>
  </note>
<note>
  <pitch>
    <step>D</step>
    <alter>1</alter>
    <octave>4</octave>
    </pitch>
  <duration>16</duration>
  
  <voice>1</voice>
  <type>eighth</type>
  
  <time-modification>
  <actual-notes>3</actual-notes>
  <normal-notes>2</normal-notes>
</time-modification>
  <stem>down</stem>
  <notations>
    
  </notations>
  </note>
<note>
  <pitch>
    <step>F</step>
    <alter>1</alter>
    <octave>4</octave>
    </pitch>
  <duration>16</duration>
  
  <voice>1</voice>
  <type>eighth</type>
  
  <time-modification>
  <actual-notes>3</actual-notes>
  <normal-notes>2</normal-notes>
</time-modification>
  <stem>down</stem>
  <notations>
    
  </notations>
  </note>
</measure>
<measure number="7">
<attributes>
<divisions>48</divisions>

  </attributes>
<note>
  <pitch>
    <step>G</step>
    <alter>1</alter>
    <octave>3</octave>
    </pitch>
  <duration>16</duration>
  
  <voice>1</voice>
  <type>eighth</type>
  
  <time-modification>
  <actual-notes>3</actual-notes>
  <normal-notes>2</normal-notes>
</time-modification>
  <stem>down</stem>
  <notations>
    
  </notations>
  </note>
<note>
  <pitch>
    <step>C</step>
    <alter>1</alter>
    <octave>4</octave>
    </pitch>
  <duration>16</duration>
  
  <voice>1</voice>
  <type>eighth</type>
  
  <time-modification>
  <actual-notes>3</actual-notes>
  <normal-notes>2</normal-notes>
</time-modification>
  <stem>down</stem>
  <notations>
    
  </notations>
  </note>
<note>
  <pitch>
    <step>E</step>
    <alter>0</alter>
    <octave>4</octave>
    </pitch>
  <duration>16</duration>
  
  <voice>1</voice>
  <type>eighth</type>
  
  <time-modification>
  <actual-notes>3</actual-notes>
  <normal-notes>2</normal-notes>
</time-modification>
  <stem>down</stem>
  <notations>
    
  </notations>
  </note>
<note>
  <pitch>
    <step>G</step>
    <alter>1</alter>
    <octave>3</octave>
    </pitch>
  <duration>16</duration>
  
  <voice>1</voice>
  <type>eighth</type>
  
  <time-modification>
  <actual-notes>3</actual-notes>
  <normal-notes>2</normal-notes>
</time-modification>
  <stem>down</stem>
  <notations>
    
  </notations>
  </note>
<note>
  <pitch>
    <step>C</step>
    <alter>1</alter>
    <octave>4</octave>
    </pitch>
  <duration>16</duration>
  
  <voice>1</voice>
  <type>eighth</type>
  
  <time-modification>
  <actual-notes>3</actual-notes>
  <normal-notes>2</normal-notes>
</time-modification>
  <stem>down</stem>
  <notations>
    
  </notations>
  </note>
<note>
  <pitch>
    <step>E</step>
    <alter>0</alter>
    <octave>4</octave>
    </pitch>
  <duration>16</duration>
  
  <voice>1</voice>
  <type>eighth</type>
  
  <time-modification>
  <actual-notes>3</actual-notes>
  <normal-notes>2</normal-notes>
</time-modification>
  <stem>down</stem>
  <notations>
    
  </notations>
  </note>
<note>
  <pitch>
    <step>A</step>
    <alter>0</alter>
    <octave>3</octave>
    </pitch>
  <duration>16</duration>
  
  <voice>1</voice>
  <type>eighth</type>
  
  <time-modification>
  <actual-notes>3</actual-notes>
  <normal-notes>2</normal-notes>
</time-modification>
  <stem>down</stem>
  <notations>
    
  </notations>
  </note>
<note>
  <pitch>
    <step>C</step>
    <alter>1</alter>
    <octave>4</octave>
    </pitch>
  <duration>16</duration>
  
  <voice>1</voice>
  <type>eighth</type>
  
  <time-modification>
  <actual-notes>3</actual-notes>
  <normal-notes>2</normal-notes>
</time-modification>
  <stem>down</stem>
  <notations>
    
  </notations>
  </note>
<note>
  <pitch>
    <step>F</step>
    <alter>1</alter>
    <octave>4</octave>
    </pitch>
  <duration>16</duration>
  
  <voice>1</voice>
  <type>eighth</type>
  
  <time-modification>
  <actual-notes>3</actual-notes>
  <normal-notes>2</normal-notes>
</time-modification>
  <stem>down</stem>
  <notations>
    
  </notations>
  </note>
<note>
  <pitch>
    <step>A</step>
    <alter>0</alter>
    <octave>3</octave>
    </pitch>
  <duration>16</duration>
  
  <voice>1</voice>
  <type>eighth</type>
  
  <time-modification>
  <actual-notes>3</actual-notes>
  <normal-notes>2</normal-notes>
</time-modification>
  <stem>down</stem>
  <notations>
    
  </notations>
  </note>
<note>
  <pitch>
    <step>C</step>
    <alter>1</alter>
    <octave>4</octave>
    </pitch>
  <duration>16</duration>
  
  <voice>1</voice>
  <type>eighth</type>
  
  <time-modification>
  <actual-notes>3</actual-notes>
  <normal-notes>2</normal-notes>
</time-modification>
  <stem>down</stem>
  <notations>
    
  </notations>
  </note>
<note>
  <pitch>
    <step>F</step>
    <alter>1</alter>
    <octave>4</octave>
    </pitch>
  <duration>16</duration>
  
  <voice>1</voice>
  <type>eighth</type>
  
  <time-modification>
  <actual-notes>3</actual-notes>
  <normal-notes>2</normal-notes>
</time-modification>
  <stem>down</stem>
  <notations>
    
  </notations>
  </note>
</measure>
<measure number="8">
<attributes>
<divisions>48</divisions>

  </attributes>
<note>
  <pitch>
    <step>G</step>
    <alter>1</alter>
    <octave>3</octave>
    </pitch>
  <duration>16</duration>
  
  <voice>1</voice>
  <type>eighth</type>
  
  <time-modification>
  <actual-notes>3</actual-notes>
  <normal-notes>2</normal-notes>
</time-modification>
  <stem>down</stem>
  <notations>
    
  </notations>
  </note>
<note>
  <pitch>
    <step>B</step>
    <alter>0</alter>
    <octave>3</octave>
    </pitch>
  <duration>16</duration>
  
  <voice>1</voice>
  <type>eighth</type>
  
  <time-modification>
  <actual-notes>3</actual-notes>
  <normal-notes>2</normal-notes>
</time-modification>
  <stem>down</stem>
  <notations>
    
  </notations>
  </note>
<note>
  <pitch>
    <step>E</step>
    <alter>0</alter>
    <octave>4</octave>
    </pitch>
  <duration>16</duration>
  
  <voice>1</voice>
  <type>eighth</type>
  
  <time-modification>
  <actual-notes>3</actual-notes>
  <normal-notes>2</normal-notes>
</time-modification>
  <stem>down</stem>
  <notations>
    
  </notations>
  </note>
<note>
  <pitch>
    <step>G</step>
    <alter>1</alter>
    <octave>3</octave>
    </pitch>
  <duration>16</duration>
  
  <voice>1</voice>
  <type>eighth</type>
  
  <time-modification>
  <actual-notes>3</actual-notes>
  <normal-notes>2</normal-notes>
</time-modification>
  <stem>down</stem>
  <notations>
    
  </notations>
  </note>
<note>
  <pitch>
    <step>B</step>
    <alter>0</alter>
    <octave>3</octave>
    </pitch>
  <duration>16</duration>
  
  <voice>1</voice>
  <type>eighth</type>
  
  <time-modification>
  <actual-notes>3</actual-notes>
  <normal-notes>2</normal-notes>
</time-modification>
  <stem>down</stem>
  <notations>
    
  </notations>
  </note>
<note>
  <pitch>
    <step>E</step>
    <alter>0</alter>
    <octave>4</octave>
    </pitch>
  <duration>16</duration>
  
  <voice>1</voice>
  <type>eighth</type>
  
  <time-modification>
  <actual-notes>3</actual-notes>
  <normal-notes>2</normal-notes>
</time-modification>
  <stem>down</stem>
  <notations>
    
  </notations>
  </note>
<note>
  <pitch>
    <step>A</step>
    <alter>0</alter>
    <octave>3</octave>
    </pitch>
  <duration>16</duration>
  
  <voice>1</voice>
  <type>eighth</type>
  
  <time-modification>
  <actual-notes>3</actual-notes>
  <normal-notes>2</normal-notes>
</time-modification>
  <stem>down</stem>
  <notations>
    
  </notations>
  </note>
<note>
  <pitch>
    <step>B</step>
    <alter>0</alter>
    <octave>3</octave>
    </pitch>
  <duration>16</duration>
  
  <voice>1</voice>
  <type>eighth</type>
  
  <time-modification>
  <actual-notes>3</actual-notes>
  <normal-notes>2</normal-notes>
</time-modification>
  <stem>down</stem>
  <notations>
    
  </notations>
  </note>
<note>
  <pitch>
    <step>D</step>
    <alter>1</alter>
    <octave>4</octave>
    </pitch>
  <duration>16</duration>
  
  <voice>1</voice>
  <type>eighth</type>
  
  <time-modification>
  <actual-notes>3</actual-notes>
  <normal-notes>2</normal-notes>
</time-modification>
  <stem>down</stem>
  <notations>
    
  </notations>
  </note>
<note>
  <pitch>
    <step>A</step>
    <alter>0</alter>
    <octave>3</octave>
    </pitch>
  <duration>16</duration>
  
  <voice>1</voice>
  <type>eighth</type>
  
  <time-modification>
  <actual-notes>3</actual-notes>
  <normal-notes>2</normal-notes>
</time-modification>
  <stem>down</stem>
  <notations>
    
  </notations>
  </note>
<note>
  <pitch>
    <step>B</step>
    <alter>0</alter>
    <octave>3</octave>
    </pitch>
  <duration>16</duration>
  
  <voice>1</voice>
  <type>eighth</type>
  
  <time-modification>
  <actual-notes>3</actual-notes>
  <normal-notes>2</normal-notes>
</time-modification>
  <stem>down</stem>
  <notations>
    
  </notations>
  </note>
<note>
  <pitch>
    <step>D</step>
    <alter>1</alter>
    <octave>4</octave>
    </pitch>
  <duration>16</duration>
  
  <voice>1</voice>
  <type>eighth</type>
  
  <time-modification>
  <actual-notes>3</actual-notes>
  <normal-notes>2</normal-notes>
</time-modification>
  <stem>down</stem>
  <notations>
    
  </notations>
  </note>
</measure>
<measure number="9">
<attributes>
<divisions>48</divisions>

  </attributes>
<note>
  <pitch>
    <step>G</step>
    <alter>1</alter>
    <octave>3</octave>
    </pitch>
  <duration>16</duration>
  
  <voice>1</voice>
  <type>eighth</type>
  
  <time-modification>
  <actual-notes>3</actual-notes>
  <normal-notes>2</normal-notes>
</time-modification>
  <stem>down</stem>
  <notations>
    
  </notations>
  </note>
<note>
  <pitch>
    <step>B</step>
    <alter>0</alter>
    <octave>3</octave>
    </pitch>
  <duration>16</duration>
  
  <voice>1</voice>
  <type>eighth</type>
  
  <time-modification>
  <actual-notes>3</actual-notes>
  <normal-notes>2</normal-notes>
</time-modification>
  <stem>down</stem>
  <notations>
    
  </notations>
  </note>
<note>
  <pitch>
    <step>E</step>
    <alter>0</alter>
    <octave>4</octave>
    </pitch>
  <duration>16</duration>
  
  <voice>1</voice>
  <type>eighth</type>
  
  <time-modification>
  <actual-notes>3</actual-notes>
  <normal-notes>2</normal-notes>
</time-modification>
  <stem>down</stem>
  <notations>
    
  </notations>
  </note>
<note>
  <pitch>
    <step>G</step>
    <alter>1</alter>
    <octave>3</octave>
    </pitch>
  <duration>16</duration>
  
  <voice>1</voice>
  <type>eighth</type>
  
  <time-modification>
  <actual-notes>3</actual-notes>
  <normal-notes>2</normal-notes>
</time-modification>
  <stem>down</stem>
  <notations>
    
  </notations>
  </note>
<note>
  <pitch>
    <step>B</step>
    <alter>0</alter>
    <octave>3</octave>
    </pitch>
  <duration>16</duration>
  
  <voice>1</voice>
  <type>eighth</type>
  
  <time-modification>
  <actual-notes>3</actual-notes>
  <normal-notes>2</normal-notes>
</time-modification>
  <stem>down</stem>
  <notations>
    
  </notations>
  </note>
<note>
  <pitch>
    <step>E</step>
    <alter>0</alter>
    <octave>4</octave>
    </pitch>
  <duration>16</duration>
  
  <voice>1</voice>
  <type>eighth</type>
  
  <time-modification>
  <actual-notes>3</actual-notes>
  <normal-notes>2</normal-notes>
</time-modification>
  <stem>down</stem>
  <notations>
    
  </notations>
  </note>
<note>
  <pitch>
    <step>G</step>
    <alter>1</alter>
    <octave>3</octave>
    </pitch>
  <duration>16</duration>
  
  <voice>1</voice>
  <type>eighth</type>
  
  <time-modification>
  <actual-notes>3</actual-notes>
  <normal-notes>2</normal-notes>
</time-modification>
  <stem>down</stem>
  <notations>
    
  </notations>
  </note>
<note>
  <pitch>
    <step>B</step>
    <alter>0</alter>
    <octave>3</octave>
    </pitch>
  <duration>16</duration>
  
  <voice>1</voice>
  <type>eighth</type>
  
  <time-modification>
  <actual-notes>3</actual-notes>
  <normal-notes>2</normal-notes>
</time-modification>
  <stem>down</stem>
  <notations>
    
  </notations>
  </note>
<note>
  <pitch>
    <step>E</step>
    <alter>0</alter>
    <octave>4</octave>
    </pitch>
  <duration>16</duration>
  
  <voice>1</voice>
  <type>eighth</type>
  
  <time-modification>
  <actual-notes>3</actual-notes>
  <normal-notes>2</normal-notes>
</time-modification>
  <stem>down</stem>
  <notations>
    
  </notations>
  </note>
<note>
  <pitch>
    <step>G</step>
    <alter>1</alter>
    <octave>3</octave>
    </pitch>
  <duration>16</duration>
  
  <voice>1</voice>
  <type>eighth</type>
  
  <time-modification>
  <actual-notes>3</actual-notes>
  <normal-notes>2</normal-notes>
</time-modification>
  <stem>down</stem>
  <notations>
    
  </notations>
  </note>
<note>
  <pitch>
    <step>B</step>
    <alter>0</alter>
    <octave>3</octave>
    </pitch>
  <duration>16</duration>
  
  <voice>1</voice>
  <type>eighth</type>
  
  <time-modification>
  <actual-notes>3</actual-notes>
  <normal-notes>2</normal-notes>
</time-modification>
  <stem>down</stem>
  <notations>
    
  </notations>
  </note>
<note>
  <pitch>
    <step>E</step>
    <alter>0</alter>
    <octave>4</octave>
    </pitch>
  <duration>16</duration>
  
  <voice>1</voice>
  <type>eighth</type>
  
  <time-modification>
  <actual-notes>3</actual-notes>
  <normal-notes>2</normal-notes>
</time-modification>
  <stem>down</stem>
  <notations>
    
  </notations>
  </note>
</measure>
<measure number="10">
<attributes>
<divisions>48</divisions>

  </attributes>
<note>
  <pitch>
    <step>G</step>
    <alter>0</alter>
    <octave>3</octave>
    </pitch>
  <duration>16</duration>
  
  <voice>1</voice>
  <type>eighth</type>
  
  <time-modification>
  <actual-notes>3</actual-notes>
  <normal-notes>2</normal-notes>
</time-modification>
  <stem>down</stem>
  <notations>
    
  </notations>
  </note>
<note>
  <pitch>
    <step>B</step>
    <alter>0</alter>
    <octave>3</octave>
    </pitch>
  <duration>16</duration>
  
  <voice>1</voice>
  <type>eighth</type>
  
  <time-modification>
  <actual-notes>3</actual-notes>
  <normal-notes>2</normal-notes>
</time-modification>
  <stem>down</stem>
  <notations>
    
  </notations>
  </note>
<note>
  <pitch>
    <step>E</step>
    <alter>0</alter>
    <octave>4</octave>
    </pitch>
  <duration>16</duration>
  
  <voice>1</voice>
  <type>eighth</type>
  
  <time-modification>
  <actual-notes>3</actual-notes>
  <normal-notes>2</normal-notes>
</time-modification>
  <stem>down</stem>
  <notations>
    
  </notations>
  </note>
<note>
  <pitch>
    <step>G</step>
    <alter>0</alter>
    <octave>3</octave>
    </pitch>
  <duration>16</duration>
  
  <voice>1</voice>
  <type>eighth</type>
  
  <time-modification>
  <actual-notes>3</actual-notes>
  <normal-notes>2</normal-notes>
</time-modification>
  <stem>down</stem>
  <notations>
    
  </notations>
  </note>
<note>
  <pitch>
    <step>B</step>
    <alter>0</alter>
    <octave>3</octave>
    </pitch>
  <duration>16</duration>
  
  <voice>1</voice>
  <type>eighth</type>
  
  <time-modification>
  <actual-notes>3</actual-notes>
  <normal-notes>2</normal-notes>
</time-modification>
  <stem>down</stem>
  <notations>
    
  </notations>
  </note>
<note>
  <pitch>
    <step>E</step>
    <alter>0</alter>
    <octave>4</octave>
    </pitch>
  <duration>16</duration>
  
  <voice>1</voice>
  <type>eighth</type>
  
  <time-modification>
  <actual-notes>3</actual-notes>
  <normal-notes>2</normal-notes>
</time-modification>
  <stem>down</stem>
  <notations>
    
  </notations>
  </note>
<note>
  <pitch>
    <step>G</step>
    <alter>0</alter>
    <octave>3</octave>
    </pitch>
  <duration>16</duration>
  
  <voice>1</voice>
  <type>eighth</type>
  
  <time-modification>
  <actual-notes>3</actual-notes>
  <normal-notes>2</normal-notes>
</time-modification>
  <stem>down</stem>
  <notations>
    
  </notations>
  </note>
<note>
  <pitch>
    <step>B</step>
    <alter>0</alter>
    <octave>3</octave>
    </pitch>
  <duration>16</duration>
  
  <voice>1</voice>
  <type>eighth</type>
  
  <time-modification>
  <actual-notes>3</actual-notes>
  <normal-notes>2</normal-notes>
</time-modification>
  <stem>down</stem>
  <notations>
    
  </notations>
  </note>
<note>
  <pitch>
    <step>E</step>
    <alter>0</alter>
    <octave>4</octave>
    </pitch>
  <duration>16</duration>
  
  <voice>1</voice>
  <type>eighth</type>
  
  <time-modification>
  <actual-notes>3</actual-notes>
  <normal-notes>2</normal-notes>
</time-modification>
  <stem>down</stem>
  <notations>
    
  </notations>
  </note>
<note>
  <pitch>
    <step>G</step>
    <alter>0</alter>
    <octave>3</octave>
    </pitch>
  <duration>16</duration>
  
  <voice>1</voice>
  <type>eighth</type>
  
  <time-modification>
  <actual-notes>3</actual-notes>
  <normal-notes>2</normal-notes>
</time-modification>
  <stem>down</stem>
  <notations>
    
  </notations>
  </note>
<note>
  <pitch>
    <step>B</step>
    <alter>0</alter>
    <octave>3</octave>
    </pitch>
  <duration>16</duration>
  
  <voice>1</voice>
  <type>eighth</type>
  
  <time-modification>
  <actual-notes>3</actual-notes>
  <normal-notes>2</normal-notes>
</time-modification>
  <stem>down</stem>
  <notations>
    
  </notations>
  </note>
<note>
  <pitch>
    <step>E</step>
    <alter>0</alter>
    <octave>4</octave>
    </pitch>
  <duration>16</duration>
  
  <voice>1</voice>
  <type>eighth</type>
  
  <time-modification>
  <actual-notes>3</actual-notes>
  <normal-notes>2</normal-notes>
</time-modification>
  <stem>down</stem>
  <notations>
    
  </notations>
  </note>
</measure>
<measure number="11">
<attributes>
<divisions>48</divisions>

  </attributes>
<note>
  <pitch>
    <step>G</step>
    <alter>0</alter>
    <octave>3</octave>
    </pitch>
  <duration>16</duration>
  
  <voice>1</voice>
  <type>eighth</type>
  
  <time-modification>
  <actual-notes>3</actual-notes>
  <normal-notes>2</normal-notes>
</time-modification>
  <stem>down</stem>
  <notations>
    
  </notations>
  </note>
<note>
  <pitch>
    <step>B</step>
    <alter>0</alter>
    <octave>3</octave>
    </pitch>
  <duration>16</duration>
  
  <voice>1</voice>
  <type>eighth</type>
  
  <time-modification>
  <actual-notes>3</actual-notes>
  <normal-notes>2</normal-notes>
</time-modification>
  <stem>down</stem>
  <notations>
    
  </notations>
  </note>
<note>
  <pitch>
    <step>F</step>
    <alter>0</alter>
    <octave>4</octave>
    </pitch>
  <duration>16</duration>
  
  <voice>1</voice>
  <type>eighth</type>
  
  <time-modification>
  <actual-notes>3</actual-notes>
  <normal-notes>2</normal-notes>
</time-modification>
  <stem>down</stem>
  <notations>
    
  </notations>
  </note>
<note>
  <pitch>
    <step>G</step>
    <alter>0</alter>
    <octave>3</octave>
    </pitch>
  <duration>16</duration>
  
  <voice>1</voice>
  <type>eighth</type>
  
  <time-modification>
  <actual-notes>3</actual-notes>
  <normal-notes>2</normal-notes>
</time-modification>
  <stem>down</stem>
  <notations>
    
  </notations>
  </note>
<note>
  <pitch>
    <step>B</step>
    <alter>0</alter>
    <octave>3</octave>
    </pitch>
  <duration>16</duration>
  
  <voice>1</voice>
  <type>eighth</type>
  
  <time-modification>
  <actual-notes>3</actual-notes>
  <normal-notes>2</normal-notes>
</time-modification>
  <stem>down</stem>
  <notations>
    
  </notations>
  </note>
<note>
  <pitch>
    <step>F</step>
    <alter>0</alter>
    <octave>4</octave>
    </pitch>
  <duration>16</duration>
  
  <voice>1</voice>
  <type>eighth</type>
  
  <time-modification>
  <actual-notes>3</actual-notes>
  <normal-notes>2</normal-notes>
</time-modification>
  <stem>down</stem>
  <notations>
    
  </notations>
  </note>
<note>
  <pitch>
    <step>G</step>
    <alter>0</alter>
    <octave>3</octave>
    </pitch>
  <duration>16</duration>
  
  <voice>1</voice>
  <type>eighth</type>
  
  <time-modification>
  <actual-notes>3</actual-notes>
  <normal-notes>2</normal-notes>
</time-modification>
  <stem>down</stem>
  <notations>
    
  </notations>
  </note>
<note>
  <pitch>
    <step>B</step>
    <alter>0</alter>
    <octave>3</octave>
    </pitch>
  <duration>16</duration>
  
  <voice>1</voice>
  <type>eighth</type>
  
  <time-modification>
  <actual-notes>3</actual-notes>
  <normal-notes>2</normal-notes>
</time-modification>
  <stem>down</stem>
  <notations>
    
  </notations>
  </note>
<note>
  <pitch>
    <step>F</step>
    <alter>0</alter>
    <octave>4</octave>
    </pitch>
  <duration>16</duration>
  
  <voice>1</voice>
  <type>eighth</type>
  
  <time-modification>
  <actual-notes>3</actual-notes>
  <normal-notes>2</normal-notes>
</time-modification>
  <stem>down</stem>
  <notations>
    
  </notations>
  </note>
<note>
  <pitch>
    <step>G</step>
    <alter>0</alter>
    <octave>3</octave>
    </pitch>
  <duration>16</duration>
  
  <voice>1</voice>
  <type>eighth</type>
  
  <time-modification>
  <actual-notes>3</actual-notes>
  <normal-notes>2</normal-notes>
</time-modification>
  <stem>down</stem>
  <notations>
    
  </notations>
  </note>
<note>
  <pitch>
    <step>B</step>
    <alter>0</alter>
    <octave>3</octave>
    </pitch>
  <duration>16</duration>
  
  <voice>1</voice>
  <type>eighth</type>
  
  <time-modification>
  <actual-notes>3</actual-notes>
  <normal-notes>2</normal-notes>
</time-modification>
  <stem>down</stem>
  <notations>
    
  </notations>
  </note>
<note>
  <pitch>
    <step>F</step>
    <alter>0</alter>
    <octave>4</octave>
    </pitch>
  <duration>16</duration>
  
  <voice>1</voice>
  <type>eighth</type>
  
  <time-modification>
  <actual-notes>3</actual-notes>
  <normal-notes>2</normal-notes>
</time-modification>
  <stem>down</stem>
  <notations>
    
  </notations>
  </note>
</measure>
</part>
<part id="melody">
  <measure number="1">
<attributes>
<divisions>48</divisions>

  </attributes>

</measure>
<measure number="2">
<attributes>
<divisions>48</divisions>

  </attributes>

</measure>
<measure number="3">
<attributes>
<divisions>48</divisions>

  </attributes>

</measure>
<measure number="4">
<attributes>
<divisions>48</divisions>

  </attributes>

</measure>
<measure number="5">
<attributes>
<divisions>48</divisions>

  </attributes>
<note>
  <pitch>
    <step>G</step>
    <alter>1</alter>
    <octave>4</octave>
    </pitch>
  <duration>36</duration>
  
  <voice>1</voice>
  <type>eighth</type>
  <dot></dot>

  
  <stem>down</stem>
  <notations>
    
  </notations>
  </note>
<note>
  <pitch>
    <step>G</step>
    <alter>1</alter>
    <octave>4</octave>
    </pitch>
  <duration>12</duration>
  
  <voice>1</voice>
  <type>16th</type>
  
  
  <stem>down</stem>
  <notations>
    
  </notations>
  </note>
</measure>
<measure number="6">
<attributes>
<divisions>48</divisions>

  </attributes>
<note>
  <pitch>
    <step>G</step>
    <alter>1</alter>
    <octave>4</octave>
    </pitch>
  <duration>144</duration>
  
  <voice>1</voice>
  <type>half</type>
  <dot></dot>

  
  <stem>down</stem>
  <notations>
    
  </notations>
  </note>
<note>
  <pitch>
    <step>G</step>
    <alter>1</alter>
    <octave>4</octave>
    </pitch>
  <duration>36</duration>
  
  <voice>1</voice>
  <type>eighth</type>
  <dot></dot>

  
  <stem>down</stem>
  <notations>
    
  </notations>
  </note>
<note>
  <pitch>
    <step>G</step>
    <alter>1</alter>
    <octave>4</octave>
    </pitch>
  <duration>12</duration>
  
  <voice>1</voice>
  <type>16th</type>
  
  
  <stem>down</stem>
  <notations>
    
  </notations>
  </note>
</measure>
<measure number="7">
<attributes>
<divisions>48</divisions>

  </attributes>
<note>
  <pitch>
    <step>G</step>
    <alter>1</alter>
    <octave>4</octave>
    </pitch>
  <duration>96</duration>
  
  <voice>1</voice>
  <type>half</type>
  
  
  <stem>down</stem>
  <notations>
    
  </notations>
  </note>
<note>
  <pitch>
    <step>A</step>
    <alter>0</alter>
    <octave>4</octave>
    </pitch>
  <duration>96</duration>
  
  <voice>1</voice>
  <type>half</type>
  
  
  <stem>down</stem>
  <notations>
    
  </notations>
  </note>
</measure>
<measure number="8">
<attributes>
<divisions>48</divisions>

  </attributes>
<note>
  <pitch>
    <step>G</step>
    <alter>1</alter>
    <octave>4</octave>
    </pitch>
  <duration>96</duration>
  
  <voice>1</voice>
  <type>half</type>
  
  
  <stem>down</stem>
  <notations>
    
  </notations>
  </note>
<note>
  <pitch>
    <step>F</step>
    <alter>1</alter>
    <octave>4</octave>
    </pitch>
  <duration>48</duration>
  
  <voice>1</voice>
  <type>quarter</type>
  
  
  <stem>down</stem>
  <notations>
    
  </notations>
  </note>
<note>
  <pitch>
    <step>B</step>
    <alter>0</alter>
    <octave>4</octave>
    </pitch>
  <duration>48</duration>
  
  <voice>1</voice>
  <type>quarter</type>
  
  
  <stem>down</stem>
  <notations>
    
  </notations>
  </note>
</measure>
<measure number="9">
<attributes>
<divisions>48</divisions>

  </attributes>
<note>
  <pitch>
    <step>E</step>
    <alter>0</alter>
    <octave>4</octave>
    </pitch>
  <duration>48</duration>
  
  <voice>1</voice>
  <type>quarter</type>
  
  
  <stem>down</stem>
  <notations>
    
  </notations>
  </note>
</measure>
<measure number="10">
<attributes>
<divisions>48</divisions>

  </attributes>
<note>
  <pitch>
    <step>G</step>
    <alter>0</alter>
    <octave>4</octave>
    </pitch>
  <duration>36</duration>
  
  <voice>1</voice>
  <type>eighth</type>
  <dot></dot>

  
  <stem>down</stem>
  <notations>
    
  </notations>
  </note>
<note>
  <pitch>
    <step>G</step>
    <alter>0</alter>
    <octave>4</octave>
    </pitch>
  <duration>12</duration>
  
  <voice>1</voice>
  <type>16th</type>
  
  
  <stem>down</stem>
  <notations>
    
  </notations>
  </note>
</measure>
<measure number="11">
<attributes>
<divisions>48</divisions>

  </attributes>
<note>
  <pitch>
    <step>G</step>
    <alter>0</alter>
    <octave>4</octave>
    </pitch>
  <duration>144</duration>
  
  <voice>1</voice>
  <type>half</type>
  <dot></dot>

  
  <stem>down</stem>
  <notations>
    
  </notations>
  </note>
<note>
  <pitch>
    <step>G</step>
    <alter>0</alter>
    <octave>4</octave>
    </pitch>
  <duration>36</duration>
  
  <voice>1</voice>
  <type>eighth</type>
  <dot></dot>

  
  <stem>down</stem>
  <notations>
    
  </notations>
  </note>
<note>
  <pitch>
    <step>G</step>
    <alter>0</alter>
    <octave>4</octave>
    </pitch>
  <duration>12</duration>
  
  <voice>1</voice>
  <type>16th</type>
  
  
  <stem>down</stem>
  <notations>
    
  </notations>
  </note>
</measure>
</part>
<part id="bass">
  <measure number="1">
<attributes>
<divisions>48</divisions>

  </attributes>
<note>
  <pitch>
    <step>C</step>
    <alter>1</alter>
    <octave>3</octave>
    </pitch>
  <duration>192</duration>
  
  <voice>1</voice>
  <type>whole</type>
  
  
  <stem>down</stem>
  <notations>
    
  </notations>
  </note>
</measure>
<measure number="2">
<attributes>
<divisions>48</divisions>

  </attributes>
<note>
  <pitch>
    <step>B</step>
    <alter>0</alter>
    <octave>2</octave>
    </pitch>
  <duration>192</duration>
  
  <voice>1</voice>
  <type>whole</type>
  
  
  <stem>down</stem>
  <notations>
    
  </notations>
  </note>
</measure>
<measure number="3">
<attributes>
<divisions>48</divisions>

  </attributes>
<note>
  <pitch>
    <step>A</step>
    <alter>0</alter>
    <octave>2</octave>
    </pitch>
  <duration>96</duration>
  
  <voice>1</voice>
  <type>half</type>
  
  
  <stem>down</stem>
  <notations>
    
  </notations>
  </note>
<note>
  <pitch>
    <step>F</step>
    <alter>1</alter>
    <octave>2</octave>
    </pitch>
  <duration>96</duration>
  
  <voice>1</voice>
  <type>half</type>
  
  
  <stem>down</stem>
  <notations>
    
  </notations>
  </note>
</measure>
<measure number="4">
<attributes>
<divisions>48</divisions>

  </attributes>
<note>
  <pitch>
    <step>G</step>
    <alter>1</alter>
    <octave>2</octave>
    </pitch>
  <duration>192</duration>
  
  <voice>1</voice>
  <type>whole</type>
  
  
  <stem>down</stem>
  <notations>
    
  </notations>
  </note>
</measure>
<measure number="5">
<attributes>
<divisions>48</divisions>

  </attributes>
<note>
  <pitch>
    <step>C</step>
    <alter>1</alter>
    <octave>3</octave>
    </pitch>
  <duration>192</duration>
  
  <voice>1</voice>
  <type>whole</type>
  
  
  <stem>down</stem>
  <notations>
    
  </notations>
  </note>
</measure>
<measure number="6">
<attributes>
<divisions>48</divisions>

  </attributes>
<note>
  <pitch>
    <step>B</step>
    <alter>1</alter>
    <octave>2</octave>
    </pitch>
  <duration>192</duration>
  
  <voice>1</voice>
  <type>whole</type>
  
  
  <stem>down</stem>
  <notations>
    
  </notations>
  </note>
</measure>
<measure number="7">
<attributes>
<divisions>48</divisions>

  </attributes>
<note>
  <pitch>
    <step>C</step>
    <alter>1</alter>
    <octave>3</octave>
    </pitch>
  <duration>96</duration>
  
  <voice>1</voice>
  <type>half</type>
  
  
  <stem>down</stem>
  <notations>
    
  </notations>
  </note>
<note>
  <pitch>
    <step>F</step>
    <alter>1</alter>
    <octave>2</octave>
    </pitch>
  <duration>96</duration>
  
  <voice>1</voice>
  <type>half</type>
  
  
  <stem>down</stem>
  <notations>
    
  </notations>
  </note>
</measure>
<measure number="8">
<attributes>
<divisions>48</divisions>

  </attributes>
<note>
  <pitch>
    <step>B</step>
    <alter>0</alter>
    <octave>2</octave>
    </pitch>
  <duration>96</duration>
  
  <voice>1</voice>
  <type>half</type>
  
  
  <stem>down</stem>
  <notations>
    
  </notations>
  </note>
<note>
  <pitch>
    <step>B</step>
    <alter>0</alter>
    <octave>2</octave>
    </pitch>
  <duration>96</duration>
  
  <voice>1</voice>
  <type>half</type>
  
  
  <stem>down</stem>
  <notations>
    
  </notations>
  </note>
</measure>
<measure number="9">
<attributes>
<divisions>48</divisions>

  </attributes>
<note>
  <pitch>
    <step>E</step>
    <alter>0</alter>
    <octave>3</octave>
    </pitch>
  <duration>192</duration>
  
  <voice>1</voice>
  <type>whole</type>
  
  
  <stem>down</stem>
  <notations>
    
  </notations>
  </note>
</measure>
<measure number="10">
<attributes>
<divisions>48</divisions>

  </attributes>
<note>
  <pitch>
    <step>E</step>
    <alter>0</alter>
    <octave>3</octave>
    </pitch>
  <duration>192</duration>
  
  <voice>1</voice>
  <type>whole</type>
  
  
  <stem>down</stem>
  <notations>
    
  </notations>
  </note>
</measure>
<measure number="11">
<attributes>
<divisions>48</divisions>

  </attributes>
<note>
  <pitch>
    <step>D</step>
    <alter>0</alter>
    <octave>3</octave>
    </pitch>
  <duration>192</duration>
  
  <voice>1</voice>
  <type>whole</type>
  
  
  <stem>down</stem>
  <notations>
    
  </notations>
  </note>
</measure>
</part>
</score-partwise>