<?xml version="1.0" encoding="UTF-8"?>
<score-partwise version="4.0">
<part-list>
  <score-part id="two">
  <part-name>two</part-name>
</score-part>
<score-part id="one">
  <part-name>one</part-name>
</score-part>
<score-part id="four">
  <part-name>four</part-name>
</score-part>
<score-part id="five">
  <part-name>five</part-name>
</score-part>
<score-part id="three">
  <part-name>three</part-name>
</score-part>
</part-list>
<part id="two">
  <measure number="1">
<attributes>


  </attributes>
<note>
  <pitch>
    <step>D</step>
    <alter>0</alter>
    <octave>3</octave>
    </pitch>
  <duration>1</duration>
  
  <voice>1</voice>
  <type>quarter</type>
  
  <stem>down</stem>
  <notations>
    
  </notations>
  </note>
<note>
  <pitch>
    <step>E</step>
    <alter>0</alter>
    <octave>3</octave>
    </pitch>
  <duration>1</duration>
  
  <voice>1</voice>
  <type>quarter</type>
  
  <stem>down</stem>
  <notations>
    
  </notations>
  </note>
</measure>
<measure number="2">
<attributes>


  </attributes>
<note>
  <pitch>
    <step>F</step>
    <alter>0</alter>
    <octave>3</octave>
    </pitch>
  <duration>1</duration>
  
  <voice>1</voice>
  <type>quarter</type>
  
  <stem>down</stem>
  <notations>
    
  </notations>
  </note>
<note>
  <pitch>
    <step>G</step>
    <alter>0</alter>
    <octave>3</octave>
    </pitch>
  <duration>1</duration>
  
  <voice>1</voice>
  <type>quarter</type>
  
  <stem>down</stem>
  <notations>
    
  </notations>
  </note>
<note>
  <pitch>
    <step>A</step>
    <alter>0</alter>
    <octave>3</octave>
    </pitch>
  <duration>2</duration>
  
  <voice>1</voice>
  <type>half</type>
  
  <stem>down</stem>
  <notations>
    
  </notations>
  </note>
</measure>
<measure number="3">
<attributes>


  </attributes>
<note>
  <pitch>
    <step>A</step>
    <alter>0</alter>
    <octave>3</octave>
    </pitch>
  <duration>1</duration>
  
  <voice>1</voice>
  <type>quarter</type>
  
  <stem>down</stem>
  <notations>
    
  </notations>
  </note>
<note>
  <pitch>
    <step>G</step>
    <alter>0</alter>
    <octave>3</octave>
    </pitch>
  <duration>1</duration>
  
  <voice>1</voice>
  <type>quarter</type>
  
  <stem>down</stem>
  <notations>
    
  </notations>
  </note>
<note>
  <pitch>
    <step>A</step>
    <alter>0</alter>
    <octave>3</octave>
    </pitch>
  <duration>2</duration>
  
  <voice>1</voice>
  <type>half</type>
  
  <stem>down</stem>
  <notations>
    
  </notations>
  </note>
</measure>
<measure number="4">
<attributes>


  </attributes>
<note>
  <pitch>
    <step>A</step>
    <alter>0</alter>
    <octave>3</octave>
    </pitch>
  <duration>2</duration>
  
  <voice>1</voice>
  <type>half</type>
  
  <stem>down</stem>
  <notations>
    
  </notations>
  </note>
<note>
  <pitch>
    <step>A</step>
    <alter>0</alter>
    <octave>3</octave>
    </pitch>
  <duration>1</duration>
  
  <voice>1</voice>
  <type>quarter</type>
  
  <stem>down</stem>
  <notations>
    
  </notations>
  </note>
<note>
  <pitch>
    <step>A</step>
    <alter>0</alter>
    <octave>3</octave>
    </pitch>
  <duration>1</duration>
  
  <voice>1</voice>
  <type>quarter</type>
  
  <stem>down</stem>
  <notations>
    
  </notations>
  </note>
</measure>
<measure number="5">
<attributes>


  </attributes>
<note>
  <pitch>
    <step>B</step>
    <alter>-1</alter>
    <octave>3</octave>
    </pitch>
  <duration>1</duration>
  
  <voice>1</voice>
  <type>quarter</type>
  
  <stem>down</stem>
  <notations>
    
  </notations>
  </note>
<note>
  <pitch>
    <step>C</step>
    <alter>0</alter>
    <octave>4</octave>
    </pitch>
  <duration>1</duration>
  
  <voice>1</voice>
  <type>quarter</type>
  
  <stem>down</stem>
  <notations>
    
  </notations>
  </note>
<note>
  <pitch>
    <step>B</step>
    <alter>-1</alter>
    <octave>3</octave>
    </pitch>
  <duration>2</duration>
  
  <voice>1</voice>
  <type>half</type>
  
  <stem>down</stem>
  <notations>
    
  </notations>
  </note>
</measure>
<measure number="6">
<attributes>


  </attributes>
<note>
  <pitch>
    <step>A</step>
    <alter>0</alter>
    <octave>3</octave>
    </pitch>
  <duration>1</duration>
  
  <voice>1</voice>
  <type>quarter</type>
  
  <stem>down</stem>
  <notations>
    
  </notations>
  </note>
<note>
  <pitch>
    <step>G</step>
    <alter>0</alter>
    <octave>3</octave>
    </pitch>
  <duration>1</duration>
  
  <voice>1</voice>
  <type>quarter</type>
  
  <stem>down</stem>
  <notations>
    
  </notations>
  </note>
<note>
  <pitch>
    <step>A</step>
    <alter>0</alter>
    <octave>3</octave>
    </pitch>
  <duration>2</duration>
  
  <voice>1</voice>
  <type>half</type>
  
  <stem>down</stem>
  <notations>
    
  </notations>
  </note>
</measure>
<measure number="7">
<attributes>


  </attributes>
<note>
  <pitch>
    <step>A</step>
    <alter>0</alter>
    <octave>3</octave>
    </pitch>
  <duration>2</duration>
  
  <voice>1</voice>
  <type>half</type>
  
  <stem>down</stem>
  <notations>
    
  </notations>
  </note>
<note>
  <pitch>
    <step>D</step>
    <alter>0</alter>
    <octave>3</octave>
    </pitch>
  <duration>1</duration>
  
  <voice>1</voice>
  <type>quarter</type>
  
  <stem>down</stem>
  <notations>
    
  </notations>
  </note>
<note>
  <pitch>
    <step>E</step>
    <alter>0</alter>
    <octave>3</octave>
    </pitch>
  <duration>1</duration>
  
  <voice>1</voice>
  <type>quarter</type>
  
  <stem>down</stem>
  <notations>
    
  </notations>
  </note>
</measure>
<measure number="8">
<attributes>


  </attributes>
<note>
  <pitch>
    <step>F</step>
    <alter>0</alter>
    <octave>3</octave>
    </pitch>
  <duration>1</duration>
  
  <voice>1</voice>
  <type>quarter</type>
  
  <stem>down</stem>
  <notations>
    
  </notations>
  </note>
<note>
  <pitch>
    <step>G</step>
    <alter>0</alter>
    <octave>3</octave>
    </pitch>
  <duration>1</duration>
  
  <voice>1</voice>
  <type>quarter</type>
  
  <stem>down</stem>
  <notations>
    
  </notations>
  </note>
<note>
  <pitch>
    <step>A</step>
    <alter>0</alter>
    <octave>3</octave>
    </pitch>
  <duration>2</duration>
  
  <voice>1</voice>
  <type>half</type>
  
  <stem>down</stem>
  <notations>
    
  </notations>
  </note>
</measure>
<measure number="9">
<attributes>


  </attributes>
<note>
  <pitch>
    <step>A</step>
    <alter>0</alter>
    <octave>3</octave>
    </pitch>
  <duration>1</duration>
  
  <voice>1</voice>
  <type>quarter</type>
  
  <stem>down</stem>
  <notations>
    
  </notations>
  </note>
<note>
  <pitch>
    <step>G</step>
    <alter>0</alter>
    <octave>3</octave>
    </pitch>
  <duration>1</duration>
  
  <voice>1</voice>
  <type>quarter</type>
  
  <stem>down</stem>
  <notations>
    
  </notations>
  </note>
<note>
  <pitch>
    <step>A</step>
    <alter>0</alter>
    <octave>3</octave>
    </pitch>
  <duration>2</duration>
  
  <voice>1</voice>
  <type>half</type>
  
  <stem>down</stem>
  <notations>
    
  </notations>
  </note>
</measure>
<measure number="10">
<attributes>


  </attributes>
<note>
  <pitch>
    <step>A</step>
    <alter>0</alter>
    <octave>3</octave>
    </pitch>
  <duration>2</duration>
  
  <voice>1</voice>
  <type>half</type>
  
  <stem>down</stem>
  <notations>
    
  </notations>
  </note>
<note>
  <pitch>
    <step>A</step>
    <alter>0</alter>
    <octave>3</octave>
    </pitch>
  <duration>1</duration>
  
  <voice>1</voice>
  <type>quarter</type>
  
  <stem>down</stem>
  <notations>
    
  </notations>
  </note>
<note>
  <pitch>
    <step>A</step>
    <alter>0</alter>
    <octave>3</octave>
    </pitch>
  <duration>1</duration>
  
  <voice>1</voice>
  <type>quarter</type>
  
  <stem>down</stem>
  <notations>
    
  </notations>
  </note>
</measure>
<measure number="11">
<attributes>


  </attributes>
<note>
  <pitch>
    <step>B</step>
    <alter>-1</alter>
    <octave>3</octave>
    </pitch>
  <duration>1</duration>
  
  <voice>1</voice>
  <type>quarter</type>
  
  <stem>down</stem>
  <notations>
    
  </notations>
  </note>
<note>
  <pitch>
    <step>C</step>
    <alter>0</alter>
    <octave>4</octave>
    </pitch>
  <duration>1</duration>
  
  <voice>1</voice>
  <type>quarter</type>
  
  <stem>down</stem>
  <notations>
    
  </notations>
  </note>
<note>
  <pitch>
    <step>B</step>
    <alter>-1</alter>
    <octave>3</octave>
    </pitch>
  <duration>2</duration>
  
  <voice>1</voice>
  <type>half</type>
  
  <stem>down</stem>
  <notations>
    
  </notations>
  </note>
</measure>
<measure number="12">
<attributes>


  </attributes>
<note>
  <pitch>
    <step>A</step>
    <alter>0</alter>
    <octave>3</octave>
    </pitch>
  <duration>1</duration>
  
  <voice>1</voice>
  <type>quarter</type>
  
  <stem>down</stem>
  <notations>
    
  </notations>
  </note>
<note>
  <pitch>
    <step>G</step>
    <alter>0</alter>
    <octave>3</octave>
    </pitch>
  <duration>1</duration>
  
  <voice>1</voice>
  <type>quarter</type>
  
  <stem>down</stem>
  <notations>
    
  </notations>
  </note>
<note>
  <pitch>
    <step>A</step>
    <alter>0</alter>
    <octave>3</octave>
    </pitch>
  <duration>2</duration>
  
  <voice>1</voice>
  <type>half</type>
  
  <stem>down</stem>
  <notations>
    
  </notations>
  </note>
</measure>
<measure number="13">
<attributes>


  </attributes>
<note>
  <pitch>
    <step>A</step>
    <alter>0</alter>
    <octave>3</octave>
    </pitch>
  <duration>2</duration>
  
  <voice>1</voice>
  <type>half</type>
  
  <stem>down</stem>
  <notations>
    
  </notations>
  </note>
<note>
  <pitch>
    <step>A</step>
    <alter>0</alter>
    <octave>3</octave>
    </pitch>
  <duration>1</duration>
  
  <voice>1</voice>
  <type>quarter</type>
  
  <stem>down</stem>
  <notations>
    
  </notations>
  </note>
<note>
  <pitch>
    <step>A</step>
    <alter>0</alter>
    <octave>3</octave>
    </pitch>
  <duration>1</duration>
  
  <voice>1</voice>
  <type>quarter</type>
  
  <stem>down</stem>
  <notations>
    
  </notations>
  </note>
</measure>
<measure number="14">
<attributes>


  </attributes>
<note>
  <pitch>
    <step>D</step>
    <alter>0</alter>
    <octave>4</octave>
    </pitch>
  <duration>1</duration>
  
  <voice>1</voice>
  <type>quarter</type>
  
  <stem>down</stem>
  <notations>
    
  </notations>
  </note>
<note>
  <pitch>
    <step>A</step>
    <alter>0</alter>
    <octave>3</octave>
    </pitch>
  <duration>1</duration>
  
  <voice>1</voice>
  <type>quarter</type>
  
  <stem>down</stem>
  <notations>
    
  </notations>
  </note>
<note>
  <pitch>
    <step>G</step>
    <alter>0</alter>
    <octave>3</octave>
    </pitch>
  <duration>2</duration>
  
  <voice>1</voice>
  <type>half</type>
  
  <stem>down</stem>
  <notations>
    
  </notations>
  </note>
</measure>
<measure number="15">
<attributes>


  </attributes>
<note>
  <pitch>
    <step>G</step>
    <alter>0</alter>
    <octave>3</octave>
    </pitch>
  <duration>1</duration>
  
  <voice>1</voice>
  <type>quarter</type>
  
  <stem>down</stem>
  <notations>
    
  </notations>
  </note>
<note>
  <pitch>
    <step>F</step>
    <alter>0</alter>
    <octave>3</octave>
    </pitch>
  <duration>1</duration>
  
  <voice>1</voice>
  <type>quarter</type>
  
  <stem>down</stem>
  <notations>
    
  </notations>
  </note>
<note>
  <pitch>
    <step>D</step>
    <alter>0</alter>
    <octave>3</octave>
    </pitch>
  <duration>1</duration>
  
  <voice>1</voice>
  <type>quarter</type>
  
  <stem>down</stem>
  <notations>
    
  </notations>
  </note>
<note>
  <pitch>
    <step>F</step>
    <alter>0</alter>
    <octave>3</octave>
    </pitch>
  <duration>1</duration>
  
  <voice>1</voice>
  <type>quarter</type>
  
  <stem>down</stem>
  <notations>
    
  </notations>
  </note>
</measure>
<measure number="16">
<attributes>


  </attributes>
<note>
  <pitch>
    <step>A</step>
    <alter>0</alter>
    <octave>3</octave>
    </pitch>
  <duration>1</duration>
  
  <voice>1</voice>
  <type>quarter</type>
  
  <stem>down</stem>
  <notations>
    
  </notations>
  </note>
<note>
  <pitch>
    <step>F</step>
    <alter>0</alter>
    <octave>3</octave>
    </pitch>
  <duration>1</duration>
  
  <voice>1</voice>
  <type>quarter</type>
  
  <stem>down</stem>
  <notations>
    
  </notations>
  </note>
<note>
  <pitch>
    <step>E</step>
    <alter>0</alter>
    <octave>3</octave>
    </pitch>
  <duration>2</duration>
  
  <voice>1</voice>
  <type>half</type>
  
  <stem>down</stem>
  <notations>
    
  </notations>
  </note>
</measure>
<measure number="17">
<attributes>


  </attributes>
<note>
  <pitch>
    <step>E</step>
    <alter>0</alter>
    <octave>3</octave>
    </pitch>
  <duration>2</duration>
  
  <voice>1</voice>
  <type>half</type>
  
  <stem>down</stem>
  <notations>
    
  </notations>
  </note>
<note>
  <pitch>
    <step>A</step>
    <alter>0</alter>
    <octave>3</octave>
    </pitch>
  <duration>1</duration>
  
  <voice>1</voice>
  <type>quarter</type>
  
  <stem>down</stem>
  <notations>
    
  </notations>
  </note>
<note>
  <pitch>
    <step>A</step>
    <alter>0</alter>
    <octave>3</octave>
    </pitch>
  <duration>1</duration>
  
  <voice>1</voice>
  <type>quarter</type>
  
  <stem>down</stem>
  <notations>
    
  </notations>
  </note>
</measure>
<measure number="18">
<attributes>


  </attributes>
<note>
  <pitch>
    <step>D</step>
    <alter>0</alter>
    <octave>4</octave>
    </pitch>
  <duration>1</duration>
  
  <voice>1</voice>
  <type>quarter</type>
  
  <stem>down</stem>
  <notations>
    
  </notations>
  </note>
<note>
  <pitch>
    <step>A</step>
    <alter>0</alter>
    <octave>3</octave>
    </pitch>
  <duration>1</duration>
  
  <voice>1</voice>
  <type>quarter</type>
  
  <stem>down</stem>
  <notations>
    
  </notations>
  </note>
<note>
  <pitch>
    <step>G</step>
    <alter>0</alter>
    <octave>3</octave>
    </pitch>
  <duration>2</duration>
  
  <voice>1</voice>
  <type>half</type>
  
  <stem>down</stem>
  <notations>
    
  </notations>
  </note>
</measure>
<measure number="19">
<attributes>


  </attributes>
<note>
  <pitch>
    <step>E</step>
    <alter>0</alter>
    <octave>3</octave>
    </pitch>
  <duration>1</duration>
  
  <voice>1</voice>
  <type>quarter</type>
  
  <stem>down</stem>
  <notations>
    
  </notations>
  </note>
<note>
  <pitch>
    <step>F</step>
    <alter>0</alter>
    <octave>3</octave>
    </pitch>
  <duration>1</duration>
  
  <voice>1</voice>
  <type>quarter</type>
  
  <stem>down</stem>
  <notations>
    
  </notations>
  </note>
<note>
  <pitch>
    <step>D</step>
    <alter>0</alter>
    <octave>3</octave>
    </pitch>
  <duration>2</duration>
  
  <voice>1</voice>
  <type>half</type>
  
  <stem>down</stem>
  <notations>
    
  </notations>
  </note>
</measure>
<measure number="20">
<attributes>


  </attributes>
<note>
  <pitch>
    <step>D</step>
    <alter>0</alter>
    <octave>3</octave>
    </pitch>
  <duration>2</duration>
  
  <voice>1</voice>
  <type>half</type>
  
  <stem>down</stem>
  <notations>
    
  </notations>
  </note>
<note>
  <rest></rest>
  <duration>2</duration>
  <voice>1</voice>
  <type>half</type>
  
  </note>
</measure>
<measure number="21">
<attributes>


  </attributes>
<note>
  <pitch>
    <step>D</step>
    <alter>0</alter>
    <octave>3</octave>
    </pitch>
  <duration>1</duration>
  
  <voice>1</voice>
  <type>quarter</type>
  
  <stem>down</stem>
  <notations>
    
  </notations>
  </note>
<note>
  <pitch>
    <step>E</step>
    <alter>0</alter>
    <octave>3</octave>
    </pitch>
  <duration>1</duration>
  
  <voice>1</voice>
  <type>quarter</type>
  
  <stem>down</stem>
  <notations>
    
  </notations>
  </note>
</measure>
<measure number="22">
<attributes>


  </attributes>
<note>
  <pitch>
    <step>F</step>
    <alter>0</alter>
    <octave>3</octave>
    </pitch>
  <duration>1</duration>
  
  <voice>1</voice>
  <type>quarter</type>
  
  <stem>down</stem>
  <notations>
    
  </notations>
  </note>
<note>
  <pitch>
    <step>G</step>
    <alter>0</alter>
    <octave>3</octave>
    </pitch>
  <duration>1</duration>
  
  <voice>1</voice>
  <type>quarter</type>
  
  <stem>down</stem>
  <notations>
    
  </notations>
  </note>
<note>
  <pitch>
    <step>A</step>
    <alter>0</alter>
    <octave>3</octave>
    </pitch>
  <duration>2</duration>
  
  <voice>1</voice>
  <type>half</type>
  
  <stem>down</stem>
  <notations>
    
  </notations>
  </note>
</measure>
<measure number="23">
<attributes>


  </attributes>
<note>
  <pitch>
    <step>A</step>
    <alter>0</alter>
    <octave>3</octave>
    </pitch>
  <duration>1</duration>
  
  <voice>1</voice>
  <type>quarter</type>
  
  <stem>down</stem>
  <notations>
    
  </notations>
  </note>
<note>
  <pitch>
    <step>G</step>
    <alter>0</alter>
    <octave>3</octave>
    </pitch>
  <duration>1</duration>
  
  <voice>1</voice>
  <type>quarter</type>
  
  <stem>down</stem>
  <notations>
    
  </notations>
  </note>
<note>
  <pitch>
    <step>A</step>
    <alter>0</alter>
    <octave>3</octave>
    </pitch>
  <duration>2</duration>
  
  <voice>1</voice>
  <type>half</type>
  
  <stem>down</stem>
  <notations>
    
  </notations>
  </note>
</measure>
<measure number="24">
<attributes>


  </attributes>
<note>
  <pitch>
    <step>A</step>
    <alter>0</alter>
    <octave>3</octave>
    </pitch>
  <duration>2</duration>
  
  <voice>1</voice>
  <type>half</type>
  
  <stem>down</stem>
  <notations>
    
  </notations>
  </note>
<note>
  <pitch>
    <step>A</step>
    <alter>0</alter>
    <octave>3</octave>
    </pitch>
  <duration>1</duration>
  
  <voice>1</voice>
  <type>quarter</type>
  
  <stem>down</stem>
  <notations>
    
  </notations>
  </note>
<note>
  <pitch>
    <step>A</step>
    <alter>0</alter>
    <octave>3</octave>
    </pitch>
  <duration>1</duration>
  
  <voice>1</voice>
  <type>quarter</type>
  
  <stem>down</stem>
  <notations>
    
  </notations>
  </note>
</measure>
<measure number="25">
<attributes>


  </attributes>
<note>
  <pitch>
    <step>B</step>
    <alter>-1</alter>
    <octave>3</octave>
    </pitch>
  <duration>1</duration>
  
  <voice>1</voice>
  <type>quarter</type>
  
  <stem>down</stem>
  <notations>
    
  </notations>
  </note>
<note>
  <pitch>
    <step>C</step>
    <alter>0</alter>
    <octave>4</octave>
    </pitch>
  <duration>1</duration>
  
  <voice>1</voice>
  <type>quarter</type>
  
  <stem>down</stem>
  <notations>
    
  </notations>
  </note>
<note>
  <pitch>
    <step>B</step>
    <alter>-1</alter>
    <octave>3</octave>
    </pitch>
  <duration>2</duration>
  
  <voice>1</voice>
  <type>half</type>
  
  <stem>down</stem>
  <notations>
    
  </notations>
  </note>
</measure>
<measure number="26">
<attributes>


  </attributes>
<note>
  <pitch>
    <step>A</step>
    <alter>0</alter>
    <octave>3</octave>
    </pitch>
  <duration>1</duration>
  
  <voice>1</voice>
  <type>quarter</type>
  
  <stem>down</stem>
  <notations>
    
  </notations>
  </note>
<note>
  <pitch>
    <step>G</step>
    <alter>0</alter>
    <octave>3</octave>
    </pitch>
  <duration>1</duration>
  
  <voice>1</voice>
  <type>quarter</type>
  
  <stem>down</stem>
  <notations>
    
  </notations>
  </note>
<note>
  <pitch>
    <step>A</step>
    <alter>0</alter>
    <octave>3</octave>
    </pitch>
  <duration>2</duration>
  
  <voice>1</voice>
  <type>half</type>
  
  <stem>down</stem>
  <notations>
    
  </notations>
  </note>
</measure>
<measure number="27">
<attributes>


  </attributes>
<note>
  <pitch>
    <step>A</step>
    <alter>0</alter>
    <octave>3</octave>
    </pitch>
  <duration>2</duration>
  
  <voice>1</voice>
  <type>half</type>
  
  <stem>down</stem>
  <notations>
    
  </notations>
  </note>
<note>
  <pitch>
    <step>D</step>
    <alter>0</alter>
    <octave>3</octave>
    </pitch>
  <duration>1</duration>
  
  <voice>1</voice>
  <type>quarter</type>
  
  <stem>down</stem>
  <notations>
    
  </notations>
  </note>
<note>
  <pitch>
    <step>E</step>
    <alter>0</alter>
    <octave>3</octave>
    </pitch>
  <duration>1</duration>
  
  <voice>1</voice>
  <type>quarter</type>
  
  <stem>down</stem>
  <notations>
    
  </notations>
  </note>
</measure>
<measure number="28">
<attributes>


  </attributes>
<note>
  <pitch>
    <step>F</step>
    <alter>0</alter>
    <octave>3</octave>
    </pitch>
  <duration>1</duration>
  
  <voice>1</voice>
  <type>quarter</type>
  
  <stem>down</stem>
  <notations>
    
  </notations>
  </note>
<note>
  <pitch>
    <step>G</step>
    <alter>0</alter>
    <octave>3</octave>
    </pitch>
  <duration>1</duration>
  
  <voice>1</voice>
  <type>quarter</type>
  
  <stem>down</stem>
  <notations>
    
  </notations>
  </note>
<note>
  <pitch>
    <step>A</step>
    <alter>0</alter>
    <octave>3</octave>
    </pitch>
  <duration>2</duration>
  
  <voice>1</voice>
  <type>half</type>
  
  <stem>down</stem>
  <notations>
    
  </notations>
  </note>
</measure>
<measure number="29">
<attributes>


  </attributes>
<note>
  <pitch>
    <step>A</step>
    <alter>0</alter>
    <octave>3</octave>
    </pitch>
  <duration>1</duration>
  
  <voice>1</voice>
  <type>quarter</type>
  
  <stem>down</stem>
  <notations>
    
  </notations>
  </note>
<note>
  <pitch>
    <step>G</step>
    <alter>0</alter>
    <octave>3</octave>
    </pitch>
  <duration>1</duration>
  
  <voice>1</voice>
  <type>quarter</type>
  
  <stem>down</stem>
  <notations>
    
  </notations>
  </note>
<note>
  <pitch>
    <step>A</step>
    <alter>0</alter>
    <octave>3</octave>
    </pitch>
  <duration>2</duration>
  
  <voice>1</voice>
  <type>half</type>
  
  <stem>down</stem>
  <notations>
    
  </notations>
  </note>
</measure>
<measure number="30">
<attributes>


  </attributes>
<note>
  <pitch>
    <step>A</step>
    <alter>0</alter>
    <octave>3</octave>
    </pitch>
  <duration>2</duration>
  
  <voice>1</voice>
  <type>half</type>
  
  <stem>down</stem>
  <notations>
    
  </notations>
  </note>
<note>
  <pitch>
    <step>A</step>
    <alter>0</alter>
    <octave>3</octave>
    </pitch>
  <duration>1</duration>
  
  <voice>1</voice>
  <type>quarter</type>
  
  <stem>down</stem>
  <notations>
    
  </notations>
  </note>
<note>
  <pitch>
    <step>A</step>
    <alter>0</alter>
    <octave>3</octave>
    </pitch>
  <duration>1</duration>
  
  <voice>1</voice>
  <type>quarter</type>
  
  <stem>down</stem>
  <notations>
    
  </notations>
  </note>
</measure>
<measure number="31">
<attributes>


  </attributes>
<note>
  <pitch>
    <step>B</step>
    <alter>-1</alter>
    <octave>3</octave>
    </pitch>
  <duration>1</duration>
  
  <voice>1</voice>
  <type>quarter</type>
  
  <stem>down</stem>
  <notations>
    
  </notations>
  </note>
<note>
  <pitch>
    <step>C</step>
    <alter>0</alter>
    <octave>4</octave>
    </pitch>
  <duration>1</duration>
  
  <voice>1</voice>
  <type>quarter</type>
  
  <stem>down</stem>
  <notations>
    
  </notations>
  </note>
<note>
  <pitch>
    <step>B</step>
    <alter>-1</alter>
    <octave>3</octave>
    </pitch>
  <duration>2</duration>
  
  <voice>1</voice>
  <type>half</type>
  
  <stem>down</stem>
  <notations>
    
  </notations>
  </note>
</measure>
<measure number="32">
<attributes>


  </attributes>
<note>
  <pitch>
    <step>A</step>
    <alter>0</alter>
    <octave>3</octave>
    </pitch>
  <duration>1</duration>
  
  <voice>1</voice>
  <type>quarter</type>
  
  <stem>down</stem>
  <notations>
    
  </notations>
  </note>
<note>
  <pitch>
    <step>G</step>
    <alter>0</alter>
    <octave>3</octave>
    </pitch>
  <duration>1</duration>
  
  <voice>1</voice>
  <type>quarter</type>
  
  <stem>down</stem>
  <notations>
    
  </notations>
  </note>
<note>
  <pitch>
    <step>A</step>
    <alter>0</alter>
    <octave>3</octave>
    </pitch>
  <duration>2</duration>
  
  <voice>1</voice>
  <type>half</type>
  
  <stem>down</stem>
  <notations>
    
  </notations>
  </note>
</measure>
<measure number="33">
<attributes>


  </attributes>
<note>
  <pitch>
    <step>A</step>
    <alter>0</alter>
    <octave>3</octave>
    </pitch>
  <duration>2</duration>
  
  <voice>1</voice>
  <type>half</type>
  
  <stem>down</stem>
  <notations>
    
  </notations>
  </note>
<note>
  <pitch>
    <step>A</step>
    <alter>0</alter>
    <octave>3</octave>
    </pitch>
  <duration>1</duration>
  
  <voice>1</voice>
  <type>quarter</type>
  
  <stem>down</stem>
  <notations>
    
  </notations>
  </note>
<note>
  <pitch>
    <step>A</step>
    <alter>0</alter>
    <octave>3</octave>
    </pitch>
  <duration>1</duration>
  
  <voice>1</voice>
  <type>quarter</type>
  
  <stem>down</stem>
  <notations>
    
  </notations>
  </note>
</measure>
<measure number="34">
<attributes>


  </attributes>
<note>
  <pitch>
    <step>D</step>
    <alter>0</alter>
    <octave>4</octave>
    </pitch>
  <duration>1</duration>
  
  <voice>1</voice>
  <type>quarter</type>
  
  <stem>down</stem>
  <notations>
    
  </notations>
  </note>
<note>
  <pitch>
    <step>A</step>
    <alter>0</alter>
    <octave>3</octave>
    </pitch>
  <duration>1</duration>
  
  <voice>1</voice>
  <type>quarter</type>
  
  <stem>down</stem>
  <notations>
    
  </notations>
  </note>
<note>
  <pitch>
    <step>G</step>
    <alter>0</alter>
    <octave>3</octave>
    </pitch>
  <duration>2</duration>
  
  <voice>1</voice>
  <type>half</type>
  
  <stem>down</stem>
  <notations>
    
  </notations>
  </note>
</measure>
<measure number="35">
<attributes>


  </attributes>
<note>
  <pitch>
    <step>G</step>
    <alter>0</alter>
    <octave>3</octave>
    </pitch>
  <duration>1</duration>
  
  <voice>1</voice>
  <type>quarter</type>
  
  <stem>down</stem>
  <notations>
    
  </notations>
  </note>
<note>
  <pitch>
    <step>F</step>
    <alter>0</alter>
    <octave>3</octave>
    </pitch>
  <duration>1</duration>
  
  <voice>1</voice>
  <type>quarter</type>
  
  <stem>down</stem>
  <notations>
    
  </notations>
  </note>
<note>
  <pitch>
    <step>D</step>
    <alter>0</alter>
    <octave>3</octave>
    </pitch>
  <duration>1</duration>
  
  <voice>1</voice>
  <type>quarter</type>
  
  <stem>down</stem>
  <notations>
    
  </notations>
  </note>
<note>
  <pitch>
    <step>F</step>
    <alter>0</alter>
    <octave>3</octave>
    </pitch>
  <duration>1</duration>
  
  <voice>1</voice>
  <type>quarter</type>
  
  <stem>down</stem>
  <notations>
    
  </notations>
  </note>
</measure>
<measure number="36">
<attributes>


  </attributes>
<note>
  <pitch>
    <step>A</step>
    <alter>0</alter>
    <octave>3</octave>
    </pitch>
  <duration>1</duration>
  
  <voice>1</voice>
  <type>quarter</type>
  
  <stem>down</stem>
  <notations>
    
  </notations>
  </note>
<note>
  <pitch>
    <step>F</step>
    <alter>0</alter>
    <octave>3</octave>
    </pitch>
  <duration>1</duration>
  
  <voice>1</voice>
  <type>quarter</type>
  
  <stem>down</stem>
  <notations>
    
  </notations>
  </note>
<note>
  <pitch>
    <step>E</step>
    <alter>0</alter>
    <octave>3</octave>
    </pitch>
  <duration>2</duration>
  
  <voice>1</voice>
  <type>half</type>
  
  <stem>down</stem>
  <notations>
    
  </notations>
  </note>
</measure>
<measure number="37">
<attributes>


  </attributes>
<note>
  <pitch>
    <step>E</step>
    <alter>0</alter>
    <octave>3</octave>
    </pitch>
  <duration>2</duration>
  
  <voice>1</voice>
  <type>half</type>
  
  <stem>down</stem>
  <notations>
    
  </notations>
  </note>
<note>
  <pitch>
    <step>A</step>
    <alter>0</alter>
    <octave>3</octave>
    </pitch>
  <duration>1</duration>
  
  <voice>1</voice>
  <type>quarter</type>
  
  <stem>down</stem>
  <notations>
    
  </notations>
  </note>
<note>
  <pitch>
    <step>A</step>
    <alter>0</alter>
    <octave>3</octave>
    </pitch>
  <duration>1</duration>
  
  <voice>1</voice>
  <type>quarter</type>
  
  <stem>down</stem>
  <notations>
    
  </notations>
  </note>
</measure>
<measure number="38">
<attributes>


  </attributes>
<note>
  <pitch>
    <step>D</step>
    <alter>0</alter>
    <octave>4</octave>
    </pitch>
  <duration>1</duration>
  
  <voice>1</voice>
  <type>quarter</type>
  
  <stem>down</stem>
  <notations>
    
  </notations>
  </note>
<note>
  <pitch>
    <step>A</step>
    <alter>0</alter>
    <octave>3</octave>
    </pitch>
  <duration>1</duration>
  
  <voice>1</voice>
  <type>quarter</type>
  
  <stem>down</stem>
  <notations>
    
  </notations>
  </note>
<note>
  <pitch>
    <step>G</step>
    <alter>0</alter>
    <octave>3</octave>
    </pitch>
  <duration>2</duration>
  
  <voice>1</voice>
  <type>half</type>
  
  <stem>down</stem>
  <notations>
    
  </notations>
  </note>
</measure>
<measure number="39">
<attributes>


  </attributes>
<note>
  <pitch>
    <step>E</step>
    <alter>0</alter>
    <octave>3</octave>
    </pitch>
  <duration>1</duration>
  
  <voice>1</voice>
  <type>quarter</type>
  
  <stem>down</stem>
  <notations>
    
  </notations>
  </note>
<note>
  <pitch>
    <step>F</step>
    <alter>0</alter>
    <octave>3</octave>
    </pitch>
  <duration>1</duration>
  
  <voice>1</voice>
  <type>quarter</type>
  
  <stem>down</stem>
  <notations>
    
  </notations>
  </note>
<note>
  <pitch>
    <step>D</step>
    <alter>0</alter>
    <octave>3</octave>
    </pitch>
  <duration>2</duration>
  
  <voice>1</voice>
  <type>half</type>
  
  <stem>down</stem>
  <notations>
    
  </notations>
  </note>
</measure>
<measure number="40">
<attributes>


  </attributes>
<note>
  <pitch>
    <step>D</step>
    <alter>0</alter>
    <octave>3</octave>
    </pitch>
  <duration>2</duration>
  
  <voice>1</voice>
  <type>half</type>
  
  <stem>down</stem>
  <notations>
    
  </notations>
  </note>
<note>
  <rest></rest>
  <duration>2</duration>
  <voice>1</voice>
  <type>half</type>
  
  </note>
</measure>
</part>
<part id="one">
  <measure number="1">
<attributes>


  </attributes>
<note>
  <pitch>
    <step>D</step>
    <alter>0</alter>
    <octave>4</octave>
    </pitch>
  <duration>1</duration>
  
  <voice>1</voice>
  <type>quarter</type>
  
  <stem>down</stem>
  <notations>
    
  </notations>
  </note>
<note>
  <pitch>
    <step>E</step>
    <alter>0</alter>
    <octave>4</octave>
    </pitch>
  <duration>1</duration>
  
  <voice>1</voice>
  <type>quarter</type>
  
  <stem>down</stem>
  <notations>
    
  </notations>
  </note>
<note>
  <pitch>
    <step>F</step>
    <alter>0</alter>
    <octave>4</octave>
    </pitch>
  <duration>1</duration>
  
  <voice>1</voice>
  <type>quarter</type>
  
  <stem>down</stem>
  <notations>
    
  </notations>
  </note>
<note>
  <pitch>
    <step>G</step>
    <alter>0</alter>
    <octave>4</octave>
    </pitch>
  <duration>1</duration>
  
  <voice>1</voice>
  <type>quarter</type>
  
  <stem>down</stem>
  <notations>
    
  </notations>
  </note>
</measure>
<measure number="2">
<attributes>


  </attributes>
<note>
  <pitch>
    <step>A</step>
    <alter>0</alter>
    <octave>4</octave>
    </pitch>
  <duration>2</duration>
  
  <voice>1</voice>
  <type>half</type>
  
  <stem>down</stem>
  <notations>
    
  </notations>
  </note>
<note>
  <pitch>
    <step>A</step>
    <alter>0</alter>
    <octave>4</octave>
    </pitch>
  <duration>1</duration>
  
  <voice>1</voice>
  <type>quarter</type>
  
  <stem>down</stem>
  <notations>
    
  </notations>
  </note>
<note>
  <pitch>
    <step>G</step>
    <alter>0</alter>
    <octave>4</octave>
    </pitch>
  <duration>1</duration>
  
  <voice>1</voice>
  <type>quarter</type>
  
  <stem>down</stem>
  <notations>
    
  </notations>
  </note>
</measure>
<measure number="3">
<attributes>


  </attributes>
<note>
  <pitch>
    <step>A</step>
    <alter>0</alter>
    <octave>4</octave>
    </pitch>
  <duration>2</duration>
  
  <voice>1</voice>
  <type>half</type>
  
  <stem>down</stem>
  <notations>
    
  </notations>
  </note>
<note>
  <pitch>
    <step>A</step>
    <alter>0</alter>
    <octave>4</octave>
    </pitch>
  <duration>2</duration>
  
  <voice>1</voice>
  <type>half</type>
  
  <stem>down</stem>
  <notations>
    
  </notations>
  </note>
</measure>
<measure number="4">
<attributes>


  </attributes>
<note>
  <pitch>
    <step>A</step>
    <alter>0</alter>
    <octave>4</octave>
    </pitch>
  <duration>1</duration>
  
  <voice>1</voice>
  <type>quarter</type>
  
  <stem>down</stem>
  <notations>
    
  </notations>
  </note>
<note>
  <pitch>
    <step>A</step>
    <alter>0</alter>
    <octave>4</octave>
    </pitch>
  <duration>1</duration>
  
  <voice>1</voice>
  <type>quarter</type>
  
  <stem>down</stem>
  <notations>
    
  </notations>
  </note>
<note>
  <pitch>
    <step>B</step>
    <alter>-1</alter>
    <octave>4</octave>
    </pitch>
  <duration>1</duration>
  
  <voice>1</voice>
  <type>quarter</type>
  
  <stem>down</stem>
  <notations>
    
  </notations>
  </note>
<note>
  <pitch>
    <step>C</step>
    <alter>0</alter>
    <octave>5</octave>
    </pitch>
  <duration>1</duration>
  
  <voice>1</voice>
  <type>quarter</type>
  
  <stem>down</stem>
  <notations>
    
  </notations>
  </note>
</measure>
<measure number="5">
<attributes>


  </attributes>
<note>
  <pitch>
    <step>B</step>
    <alter>-1</alter>
    <octave>4</octave>
    </pitch>
  <duration>2</duration>
  
  <voice>1</voice>
  <type>half</type>
  
  <stem>down</stem>
  <notations>
    
  </notations>
  </note>
<note>
  <pitch>
    <step>A</step>
    <alter>0</alter>
    <octave>4</octave>
    </pitch>
  <duration>1</duration>
  
  <voice>1</voice>
  <type>quarter</type>
  
  <stem>down</stem>
  <notations>
    
  </notations>
  </note>
<note>
  <pitch>
    <step>G</step>
    <alter>0</alter>
    <octave>4</octave>
    </pitch>
  <duration>1</duration>
  
  <voice>1</voice>
  <type>quarter</type>
  
  <stem>down</stem>
  <notations>
    
  </notations>
  </note>
</measure>
<measure number="6">
<attributes>


  </attributes>
<note>
  <pitch>
    <step>A</step>
    <alter>0</alter>
    <octave>4</octave>
    </pitch>
  <duration>4</duration>
  
  <voice>1</voice>
  <type>whole</type>
  
  <stem>down</stem>
  <notations>
    
  </notations>
  </note>
</measure>
<measure number="7">
<attributes>


  </attributes>
<note>
  <pitch>
    <step>D</step>
    <alter>0</alter>
    <octave>4</octave>
    </pitch>
  <duration>1</duration>
  
  <voice>1</voice>
  <type>quarter</type>
  
  <stem>down</stem>
  <notations>
    
  </notations>
  </note>
<note>
  <pitch>
    <step>E</step>
    <alter>0</alter>
    <octave>4</octave>
    </pitch>
  <duration>1</duration>
  
  <voice>1</voice>
  <type>quarter</type>
  
  <stem>down</stem>
  <notations>
    
  </notations>
  </note>
<note>
  <pitch>
    <step>F</step>
    <alter>0</alter>
    <octave>4</octave>
    </pitch>
  <duration>1</duration>
  
  <voice>1</voice>
  <type>quarter</type>
  
  <stem>down</stem>
  <notations>
    
  </notations>
  </note>
<note>
  <pitch>
    <step>G</step>
    <alter>0</alter>
    <octave>4</octave>
    </pitch>
  <duration>1</duration>
  
  <voice>1</voice>
  <type>quarter</type>
  
  <stem>down</stem>
  <notations>
    
  </notations>
  </note>
</measure>
<measure number="8">
<attributes>


  </attributes>
<note>
  <pitch>
    <step>A</step>
    <alter>0</alter>
    <octave>4</octave>
    </pitch>
  <duration>2</duration>
  
  <voice>1</voice>
  <type>half</type>
  
  <stem>down</stem>
  <notations>
    
  </notations>
  </note>
<note>
  <pitch>
    <step>A</step>
    <alter>0</alter>
    <octave>4</octave>
    </pitch>
  <duration>1</duration>
  
  <voice>1</voice>
  <type>quarter</type>
  
  <stem>down</stem>
  <notations>
    
  </notations>
  </note>
<note>
  <pitch>
    <step>G</step>
    <alter>0</alter>
    <octave>4</octave>
    </pitch>
  <duration>1</duration>
  
  <voice>1</voice>
  <type>quarter</type>
  
  <stem>down</stem>
  <notations>
    
  </notations>
  </note>
</measure>
<measure number="9">
<attributes>


  </attributes>
<note>
  <pitch>
    <step>A</step>
    <alter>0</alter>
    <octave>4</octave>
    </pitch>
  <duration>2</duration>
  
  <voice>1</voice>
  <type>half</type>
  
  <stem>down</stem>
  <notations>
    
  </notations>
  </note>
<note>
  <pitch>
    <step>A</step>
    <alter>0</alter>
    <octave>4</octave>
    </pitch>
  <duration>2</duration>
  
  <voice>1</voice>
  <type>half</type>
  
  <stem>down</stem>
  <notations>
    
  </notations>
  </note>
</measure>
<measure number="10">
<attributes>


  </attributes>
<note>
  <pitch>
    <step>A</step>
    <alter>0</alter>
    <octave>4</octave>
    </pitch>
  <duration>1</duration>
  
  <voice>1</voice>
  <type>quarter</type>
  
  <stem>down</stem>
  <notations>
    
  </notations>
  </note>
<note>
  <pitch>
    <step>A</step>
    <alter>0</alter>
    <octave>4</octave>
    </pitch>
  <duration>1</duration>
  
  <voice>1</voice>
  <type>quarter</type>
  
  <stem>down</stem>
  <notations>
    
  </notations>
  </note>
<note>
  <pitch>
    <step>B</step>
    <alter>-1</alter>
    <octave>4</octave>
    </pitch>
  <duration>1</duration>
  
  <voice>1</voice>
  <type>quarter</type>
  
  <stem>down</stem>
  <notations>
    
  </notations>
  </note>
<note>
  <pitch>
    <step>C</step>
    <alter>0</alter>
    <octave>5</octave>
    </pitch>
  <duration>1</duration>
  
  <voice>1</voice>
  <type>quarter</type>
  
  <stem>down</stem>
  <notations>
    
  </notations>
  </note>
</measure>
<measure number="11">
<attributes>


  </attributes>
<note>
  <pitch>
    <step>B</step>
    <alter>-1</alter>
    <octave>4</octave>
    </pitch>
  <duration>2</duration>
  
  <voice>1</voice>
  <type>half</type>
  
  <stem>down</stem>
  <notations>
    
  </notations>
  </note>
<note>
  <pitch>
    <step>A</step>
    <alter>0</alter>
    <octave>4</octave>
    </pitch>
  <duration>1</duration>
  
  <voice>1</voice>
  <type>quarter</type>
  
  <stem>down</stem>
  <notations>
    
  </notations>
  </note>
<note>
  <pitch>
    <step>G</step>
    <alter>0</alter>
    <octave>4</octave>
    </pitch>
  <duration>1</duration>
  
  <voice>1</voice>
  <type>quarter</type>
  
  <stem>down</stem>
  <notations>
    
  </notations>
  </note>
</measure>
<measure number="12">
<attributes>


  </attributes>
<note>
  <pitch>
    <step>A</step>
    <alter>0</alter>
    <octave>4</octave>
    </pitch>
  <duration>4</duration>
  
  <voice>1</voice>
  <type>whole</type>
  
  <stem>down</stem>
  <notations>
    
  </notations>
  </note>
</measure>
<measure number="13">
<attributes>


  </attributes>
<note>
  <pitch>
    <step>A</step>
    <alter>0</alter>
    <octave>4</octave>
    </pitch>
  <duration>1</duration>
  
  <voice>1</voice>
  <type>quarter</type>
  
  <stem>down</stem>
  <notations>
    
  </notations>
  </note>
<note>
  <pitch>
    <step>A</step>
    <alter>0</alter>
    <octave>4</octave>
    </pitch>
  <duration>1</duration>
  
  <voice>1</voice>
  <type>quarter</type>
  
  <stem>down</stem>
  <notations>
    
  </notations>
  </note>
<note>
  <pitch>
    <step>D</step>
    <alter>0</alter>
    <octave>5</octave>
    </pitch>
  <duration>1</duration>
  
  <voice>1</voice>
  <type>quarter</type>
  
  <stem>down</stem>
  <notations>
    
  </notations>
  </note>
<note>
  <pitch>
    <step>A</step>
    <alter>0</alter>
    <octave>4</octave>
    </pitch>
  <duration>1</duration>
  
  <voice>1</voice>
  <type>quarter</type>
  
  <stem>down</stem>
  <notations>
    
  </notations>
  </note>
</measure>
<measure number="14">
<attributes>


  </attributes>
<note>
  <pitch>
    <step>G</step>
    <alter>0</alter>
    <octave>4</octave>
    </pitch>
  <duration>3</duration>
  
  <voice>1</voice>
  <type>half</type>
  <dot></dot>

  <stem>down</stem>
  <notations>
    
  </notations>
  </note>
<note>
  <pitch>
    <step>F</step>
    <alter>0</alter>
    <octave>4</octave>
    </pitch>
  <duration>1</duration>
  
  <voice>1</voice>
  <type>quarter</type>
  
  <stem>down</stem>
  <notations>
    
  </notations>
  </note>
</measure>
<measure number="15">
<attributes>


  </attributes>
<note>
  <pitch>
    <step>D</step>
    <alter>0</alter>
    <octave>4</octave>
    </pitch>
  <duration>1</duration>
  
  <voice>1</voice>
  <type>quarter</type>
  
  <stem>down</stem>
  <notations>
    
  </notations>
  </note>
<note>
  <pitch>
    <step>F</step>
    <alter>0</alter>
    <octave>4</octave>
    </pitch>
  <duration>1</duration>
  
  <voice>1</voice>
  <type>quarter</type>
  
  <stem>down</stem>
  <notations>
    
  </notations>
  </note>
<note>
  <pitch>
    <step>A</step>
    <alter>0</alter>
    <octave>4</octave>
    </pitch>
  <duration>1</duration>
  
  <voice>1</voice>
  <type>quarter</type>
  
  <stem>down</stem>
  <notations>
    
  </notations>
  </note>
<note>
  <pitch>
    <step>F</step>
    <alter>0</alter>
    <octave>4</octave>
    </pitch>
  <duration>1</duration>
  
  <voice>1</voice>
  <type>quarter</type>
  
  <stem>down</stem>
  <notations>
    
  </notations>
  </note>
</measure>
<measure number="16">
<attributes>


  </attributes>
<note>
  <pitch>
    <step>E</step>
    <alter>0</alter>
    <octave>4</octave>
    </pitch>
  <duration>4</duration>
  
  <voice>1</voice>
  <type>whole</type>
  
  <stem>down</stem>
  <notations>
    
  </notations>
  </note>
</measure>
<measure number="17">
<attributes>


  </attributes>
<note>
  <pitch>
    <step>A</step>
    <alter>0</alter>
    <octave>4</octave>
    </pitch>
  <duration>1</duration>
  
  <voice>1</voice>
  <type>quarter</type>
  
  <stem>down</stem>
  <notations>
    
  </notations>
  </note>
<note>
  <pitch>
    <step>A</step>
    <alter>0</alter>
    <octave>4</octave>
    </pitch>
  <duration>1</duration>
  
  <voice>1</voice>
  <type>quarter</type>
  
  <stem>down</stem>
  <notations>
    
  </notations>
  </note>
<note>
  <pitch>
    <step>D</step>
    <alter>0</alter>
    <octave>5</octave>
    </pitch>
  <duration>1</duration>
  
  <voice>1</voice>
  <type>quarter</type>
  
  <stem>down</stem>
  <notations>
    
  </notations>
  </note>
<note>
  <pitch>
    <step>A</step>
    <alter>0</alter>
    <octave>4</octave>
    </pitch>
  <duration>1</duration>
  
  <voice>1</voice>
  <type>quarter</type>
  
  <stem>down</stem>
  <notations>
    
  </notations>
  </note>
</measure>
<measure number="18">
<attributes>


  </attributes>
<note>
  <pitch>
    <step>G</step>
    <alter>0</alter>
    <octave>4</octave>
    </pitch>
  <duration>2</duration>
  
  <voice>1</voice>
  <type>half</type>
  
  <stem>down</stem>
  <notations>
    
  </notations>
  </note>
<note>
  <pitch>
    <step>E</step>
    <alter>0</alter>
    <octave>4</octave>
    </pitch>
  <duration>1</duration>
  
  <voice>1</voice>
  <type>quarter</type>
  
  <stem>down</stem>
  <notations>
    
  </notations>
  </note>
<note>
  <pitch>
    <step>F</step>
    <alter>0</alter>
    <octave>4</octave>
    </pitch>
  <duration>1</duration>
  
  <voice>1</voice>
  <type>quarter</type>
  
  <stem>down</stem>
  <notations>
    
  </notations>
  </note>
</measure>
<measure number="19">
<attributes>


  </attributes>
<note>
  <pitch>
    <step>D</step>
    <alter>0</alter>
    <octave>4</octave>
    </pitch>
  <duration>4</duration>
  
  <voice>1</voice>
  <type>whole</type>
  
  <stem>down</stem>
  <notations>
    
  </notations>
  </note>
</measure>
<measure number="20">
<attributes>


  </attributes>

</measure>
<measure number="21">
<attributes>


  </attributes>
<note>
  <pitch>
    <step>D</step>
    <alter>0</alter>
    <octave>4</octave>
    </pitch>
  <duration>1</duration>
  
  <voice>1</voice>
  <type>quarter</type>
  
  <stem>down</stem>
  <notations>
    
  </notations>
  </note>
<note>
  <pitch>
    <step>E</step>
    <alter>0</alter>
    <octave>4</octave>
    </pitch>
  <duration>1</duration>
  
  <voice>1</voice>
  <type>quarter</type>
  
  <stem>down</stem>
  <notations>
    
  </notations>
  </note>
<note>
  <pitch>
    <step>F</step>
    <alter>0</alter>
    <octave>4</octave>
    </pitch>
  <duration>1</duration>
  
  <voice>1</voice>
  <type>quarter</type>
  
  <stem>down</stem>
  <notations>
    
  </notations>
  </note>
<note>
  <pitch>
    <step>G</step>
    <alter>0</alter>
    <octave>4</octave>
    </pitch>
  <duration>1</duration>
  
  <voice>1</voice>
  <type>quarter</type>
  
  <stem>down</stem>
  <notations>
    
  </notations>
  </note>
</measure>
<measure number="22">
<attributes>


  </attributes>
<note>
  <pitch>
    <step>A</step>
    <alter>0</alter>
    <octave>4</octave>
    </pitch>
  <duration>2</duration>
  
  <voice>1</voice>
  <type>half</type>
  
  <stem>down</stem>
  <notations>
    
  </notations>
  </note>
<note>
  <pitch>
    <step>A</step>
    <alter>0</alter>
    <octave>4</octave>
    </pitch>
  <duration>1</duration>
  
  <voice>1</voice>
  <type>quarter</type>
  
  <stem>down</stem>
  <notations>
    
  </notations>
  </note>
<note>
  <pitch>
    <step>G</step>
    <alter>0</alter>
    <octave>4</octave>
    </pitch>
  <duration>1</duration>
  
  <voice>1</voice>
  <type>quarter</type>
  
  <stem>down</stem>
  <notations>
    
  </notations>
  </note>
</measure>
<measure number="23">
<attributes>


  </attributes>
<note>
  <pitch>
    <step>A</step>
    <alter>0</alter>
    <octave>4</octave>
    </pitch>
  <duration>2</duration>
  
  <voice>1</voice>
  <type>half</type>
  
  <stem>down</stem>
  <notations>
    
  </notations>
  </note>
<note>
  <pitch>
    <step>A</step>
    <alter>0</alter>
    <octave>4</octave>
    </pitch>
  <duration>2</duration>
  
  <voice>1</voice>
  <type>half</type>
  
  <stem>down</stem>
  <notations>
    
  </notations>
  </note>
</measure>
<measure number="24">
<attributes>


  </attributes>
<note>
  <pitch>
    <step>A</step>
    <alter>0</alter>
    <octave>4</octave>
    </pitch>
  <duration>1</duration>
  
  <voice>1</voice>
  <type>quarter</type>
  
  <stem>down</stem>
  <notations>
    
  </notations>
  </note>
<note>
  <pitch>
    <step>A</step>
    <alter>0</alter>
    <octave>4</octave>
    </pitch>
  <duration>1</duration>
  
  <voice>1</voice>
  <type>quarter</type>
  
  <stem>down</stem>
  <notations>
    
  </notations>
  </note>
<note>
  <pitch>
    <step>B</step>
    <alter>-1</alter>
    <octave>4</octave>
    </pitch>
  <duration>1</duration>
  
  <voice>1</voice>
  <type>quarter</type>
  
  <stem>down</stem>
  <notations>
    
  </notations>
  </note>
<note>
  <pitch>
    <step>C</step>
    <alter>0</alter>
    <octave>5</octave>
    </pitch>
  <duration>1</duration>
  
  <voice>1</voice>
  <type>quarter</type>
  
  <stem>down</stem>
  <notations>
    
  </notations>
  </note>
</measure>
<measure number="25">
<attributes>


  </attributes>
<note>
  <pitch>
    <step>B</step>
    <alter>-1</alter>
    <octave>4</octave>
    </pitch>
  <duration>2</duration>
  
  <voice>1</voice>
  <type>half</type>
  
  <stem>down</stem>
  <notations>
    
  </notations>
  </note>
<note>
  <pitch>
    <step>A</step>
    <alter>0</alter>
    <octave>4</octave>
    </pitch>
  <duration>1</duration>
  
  <voice>1</voice>
  <type>quarter</type>
  
  <stem>down</stem>
  <notations>
    
  </notations>
  </note>
<note>
  <pitch>
    <step>G</step>
    <alter>0</alter>
    <octave>4</octave>
    </pitch>
  <duration>1</duration>
  
  <voice>1</voice>
  <type>quarter</type>
  
  <stem>down</stem>
  <notations>
    
  </notations>
  </note>
</measure>
<measure number="26">
<attributes>


  </attributes>
<note>
  <pitch>
    <step>A</step>
    <alter>0</alter>
    <octave>4</octave>
    </pitch>
  <duration>4</duration>
  
  <voice>1</voice>
  <type>whole</type>
  
  <stem>down</stem>
  <notations>
    
  </notations>
  </note>
</measure>
<measure number="27">
<attributes>


  </attributes>
<note>
  <pitch>
    <step>D</step>
    <alter>0</alter>
    <octave>4</octave>
    </pitch>
  <duration>1</duration>
  
  <voice>1</voice>
  <type>quarter</type>
  
  <stem>down</stem>
  <notations>
    
  </notations>
  </note>
<note>
  <pitch>
    <step>E</step>
    <alter>0</alter>
    <octave>4</octave>
    </pitch>
  <duration>1</duration>
  
  <voice>1</voice>
  <type>quarter</type>
  
  <stem>down</stem>
  <notations>
    
  </notations>
  </note>
<note>
  <pitch>
    <step>F</step>
    <alter>0</alter>
    <octave>4</octave>
    </pitch>
  <duration>1</duration>
  
  <voice>1</voice>
  <type>quarter</type>
  
  <stem>down</stem>
  <notations>
    
  </notations>
  </note>
<note>
  <pitch>
    <step>G</step>
    <alter>0</alter>
    <octave>4</octave>
    </pitch>
  <duration>1</duration>
  
  <voice>1</voice>
  <type>quarter</type>
  
  <stem>down</stem>
  <notations>
    
  </notations>
  </note>
</measure>
<measure number="28">
<attributes>


  </attributes>
<note>
  <pitch>
    <step>A</step>
    <alter>0</alter>
    <octave>4</octave>
    </pitch>
  <duration>2</duration>
  
  <voice>1</voice>
  <type>half</type>
  
  <stem>down</stem>
  <notations>
    
  </notations>
  </note>
<note>
  <pitch>
    <step>A</step>
    <alter>0</alter>
    <octave>4</octave>
    </pitch>
  <duration>1</duration>
  
  <voice>1</voice>
  <type>quarter</type>
  
  <stem>down</stem>
  <notations>
    
  </notations>
  </note>
<note>
  <pitch>
    <step>G</step>
    <alter>0</alter>
    <octave>4</octave>
    </pitch>
  <duration>1</duration>
  
  <voice>1</voice>
  <type>quarter</type>
  
  <stem>down</stem>
  <notations>
    
  </notations>
  </note>
</measure>
<measure number="29">
<attributes>


  </attributes>
<note>
  <pitch>
    <step>A</step>
    <alter>0</alter>
    <octave>4</octave>
    </pitch>
  <duration>2</duration>
  
  <voice>1</voice>
  <type>half</type>
  
  <stem>down</stem>
  <notations>
    
  </notations>
  </note>
<note>
  <pitch>
    <step>A</step>
    <alter>0</alter>
    <octave>4</octave>
    </pitch>
  <duration>2</duration>
  
  <voice>1</voice>
  <type>half</type>
  
  <stem>down</stem>
  <notations>
    
  </notations>
  </note>
</measure>
<measure number="30">
<attributes>


  </attributes>
<note>
  <pitch>
    <step>A</step>
    <alter>0</alter>
    <octave>4</octave>
    </pitch>
  <duration>1</duration>
  
  <voice>1</voice>
  <type>quarter</type>
  
  <stem>down</stem>
  <notations>
    
  </notations>
  </note>
<note>
  <pitch>
    <step>A</step>
    <alter>0</alter>
    <octave>4</octave>
    </pitch>
  <duration>1</duration>
  
  <voice>1</voice>
  <type>quarter</type>
  
  <stem>down</stem>
  <notations>
    
  </notations>
  </note>
<note>
  <pitch>
    <step>B</step>
    <alter>-1</alter>
    <octave>4</octave>
    </pitch>
  <duration>1</duration>
  
  <voice>1</voice>
  <type>quarter</type>
  
  <stem>down</stem>
  <notations>
    
  </notations>
  </note>
<note>
  <pitch>
    <step>C</step>
    <alter>0</alter>
    <octave>5</octave>
    </pitch>
  <duration>1</duration>
  
  <voice>1</voice>
  <type>quarter</type>
  
  <stem>down</stem>
  <notations>
    
  </notations>
  </note>
</measure>
<measure number="31">
<attributes>


  </attributes>
<note>
  <pitch>
    <step>B</step>
    <alter>-1</alter>
    <octave>4</octave>
    </pitch>
  <duration>2</duration>
  
  <voice>1</voice>
  <type>half</type>
  
  <stem>down</stem>
  <notations>
    
  </notations>
  </note>
<note>
  <pitch>
    <step>A</step>
    <alter>0</alter>
    <octave>4</octave>
    </pitch>
  <duration>1</duration>
  
  <voice>1</voice>
  <type>quarter</type>
  
  <stem>down</stem>
  <notations>
    
  </notations>
  </note>
<note>
  <pitch>
    <step>G</step>
    <alter>0</alter>
    <octave>4</octave>
    </pitch>
  <duration>1</duration>
  
  <voice>1</voice>
  <type>quarter</type>
  
  <stem>down</stem>
  <notations>
    
  </notations>
  </note>
</measure>
<measure number="32">
<attributes>


  </attributes>
<note>
  <pitch>
    <step>A</step>
    <alter>0</alter>
    <octave>4</octave>
    </pitch>
  <duration>4</duration>
  
  <voice>1</voice>
  <type>whole</type>
  
  <stem>down</stem>
  <notations>
    
  </notations>
  </note>
</measure>
<measure number="33">
<attributes>


  </attributes>
<note>
  <pitch>
    <step>A</step>
    <alter>0</alter>
    <octave>4</octave>
    </pitch>
  <duration>1</duration>
  
  <voice>1</voice>
  <type>quarter</type>
  
  <stem>down</stem>
  <notations>
    
  </notations>
  </note>
<note>
  <pitch>
    <step>A</step>
    <alter>0</alter>
    <octave>4</octave>
    </pitch>
  <duration>1</duration>
  
  <voice>1</voice>
  <type>quarter</type>
  
  <stem>down</stem>
  <notations>
    
  </notations>
  </note>
<note>
  <pitch>
    <step>D</step>
    <alter>0</alter>
    <octave>5</octave>
    </pitch>
  <duration>1</duration>
  
  <voice>1</voice>
  <type>quarter</type>
  
  <stem>down</stem>
  <notations>
    
  </notations>
  </note>
<note>
  <pitch>
    <step>A</step>
    <alter>0</alter>
    <octave>4</octave>
    </pitch>
  <duration>1</duration>
  
  <voice>1</voice>
  <type>quarter</type>
  
  <stem>down</stem>
  <notations>
    
  </notations>
  </note>
</measure>
<measure number="34">
<attributes>


  </attributes>
<note>
  <pitch>
    <step>G</step>
    <alter>0</alter>
    <octave>4</octave>
    </pitch>
  <duration>3</duration>
  
  <voice>1</voice>
  <type>half</type>
  <dot></dot>

  <stem>down</stem>
  <notations>
    
  </notations>
  </note>
<note>
  <pitch>
    <step>F</step>
    <alter>0</alter>
    <octave>4</octave>
    </pitch>
  <duration>1</duration>
  
  <voice>1</voice>
  <type>quarter</type>
  
  <stem>down</stem>
  <notations>
    
  </notations>
  </note>
</measure>
<measure number="35">
<attributes>


  </attributes>
<note>
  <pitch>
    <step>D</step>
    <alter>0</alter>
    <octave>4</octave>
    </pitch>
  <duration>1</duration>
  
  <voice>1</voice>
  <type>quarter</type>
  
  <stem>down</stem>
  <notations>
    
  </notations>
  </note>
<note>
  <pitch>
    <step>F</step>
    <alter>0</alter>
    <octave>4</octave>
    </pitch>
  <duration>1</duration>
  
  <voice>1</voice>
  <type>quarter</type>
  
  <stem>down</stem>
  <notations>
    
  </notations>
  </note>
<note>
  <pitch>
    <step>A</step>
    <alter>0</alter>
    <octave>4</octave>
    </pitch>
  <duration>1</duration>
  
  <voice>1</voice>
  <type>quarter</type>
  
  <stem>down</stem>
  <notations>
    
  </notations>
  </note>
<note>
  <pitch>
    <step>F</step>
    <alter>0</alter>
    <octave>4</octave>
    </pitch>
  <duration>1</duration>
  
  <voice>1</voice>
  <type>quarter</type>
  
  <stem>down</stem>
  <notations>
    
  </notations>
  </note>
</measure>
<measure number="36">
<attributes>


  </attributes>
<note>
  <pitch>
    <step>E</step>
    <alter>0</alter>
    <octave>4</octave>
    </pitch>
  <duration>4</duration>
  
  <voice>1</voice>
  <type>whole</type>
  
  <stem>down</stem>
  <notations>
    
  </notations>
  </note>
</measure>
<measure number="37">
<attributes>


  </attributes>
<note>
  <pitch>
    <step>A</step>
    <alter>0</alter>
    <octave>4</octave>
    </pitch>
  <duration>1</duration>
  
  <voice>1</voice>
  <type>quarter</type>
  
  <stem>down</stem>
  <notations>
    
  </notations>
  </note>
<note>
  <pitch>
    <step>A</step>
    <alter>0</alter>
    <octave>4</octave>
    </pitch>
  <duration>1</duration>
  
  <voice>1</voice>
  <type>quarter</type>
  
  <stem>down</stem>
  <notations>
    
  </notations>
  </note>
<note>
  <pitch>
    <step>D</step>
    <alter>0</alter>
    <octave>5</octave>
    </pitch>
  <duration>1</duration>
  
  <voice>1</voice>
  <type>quarter</type>
  
  <stem>down</stem>
  <notations>
    
  </notations>
  </note>
<note>
  <pitch>
    <step>A</step>
    <alter>0</alter>
    <octave>4</octave>
    </pitch>
  <duration>1</duration>
  
  <voice>1</voice>
  <type>quarter</type>
  
  <stem>down</stem>
  <notations>
    
  </notations>
  </note>
</measure>
<measure number="38">
<attributes>


  </attributes>
<note>
  <pitch>
    <step>G</step>
    <alter>0</alter>
    <octave>4</octave>
    </pitch>
  <duration>2</duration>
  
  <voice>1</voice>
  <type>half</type>
  
  <stem>down</stem>
  <notations>
    
  </notations>
  </note>
<note>
  <pitch>
    <step>E</step>
    <alter>0</alter>
    <octave>4</octave>
    </pitch>
  <duration>1</duration>
  
  <voice>1</voice>
  <type>quarter</type>
  
  <stem>down</stem>
  <notations>
    
  </notations>
  </note>
<note>
  <pitch>
    <step>F</step>
    <alter>0</alter>
    <octave>4</octave>
    </pitch>
  <duration>1</duration>
  
  <voice>1</voice>
  <type>quarter</type>
  
  <stem>down</stem>
  <notations>
    
  </notations>
  </note>
</measure>
<measure number="39">
<attributes>


  </attributes>
<note>
  <pitch>
    <step>D</step>
    <alter>0</alter>
    <octave>4</octave>
    </pitch>
  <duration>4</duration>
  
  <voice>1</voice>
  <type>whole</type>
  
  <stem>down</stem>
  <notations>
    
  </notations>
  </note>
</measure>
<measure number="40">
<attributes>


  </attributes>

</measure>
</part>
<part id="four">
  <measure number="1">
<attributes>


  </attributes>

</measure>
<measure number="2">
<attributes>


  </attributes>

</measure>
<measure number="3">
<attributes>


  </attributes>

</measure>
<measure number="4">
<attributes>


  </attributes>

</measure>
<measure number="5">
<attributes>


  </attributes>

</measure>
<measure number="6">
<attributes>


  </attributes>

</measure>
<measure number="7">
<attributes>


  </attributes>

</measure>
<measure number="8">
<attributes>


  </attributes>

</measure>
<measure number="9">
<attributes>


  </attributes>

</measure>
<measure number="10">
<attributes>


  </attributes>

</measure>
<measure number="11">
<attributes>


  </attributes>

</measure>
<measure number="12">
<attributes>


  </attributes>

</measure>
<measure number="13">
<attributes>


  </attributes>

</measure>
<measure number="14">
<attributes>


  </attributes>

</measure>
<measure number="15">
<attributes>


  </attributes>

</measure>
<measure number="16">
<attributes>


  </attributes>

</measure>
<measure number="17">
<attributes>


  </attributes>

</measure>
<measure number="18">
<attributes>


  </attributes>

</measure>
<measure number="19">
<attributes>


  </attributes>

</measure>
<measure number="20">
<attributes>


  </attributes>

</measure>
<measure number="21">
<attributes>


  </attributes>
<note>
  <pitch>
    <step>D</step>
    <alter>0</alter>
    <octave>4</octave>
    </pitch>
  <duration>1</duration>
  
  <voice>1</voice>
  <type>quarter</type>
  
  <stem>down</stem>
  <notations>
    
  </notations>
  </note>
<note>
  <pitch>
    <step>C</step>
    <alter>0</alter>
    <octave>4</octave>
    </pitch>
  <duration>1</duration>
  
  <voice>1</voice>
  <type>quarter</type>
  
  <stem>down</stem>
  <notations>
    
  </notations>
  </note>
<note>
  <pitch>
    <step>B</step>
    <alter>-1</alter>
    <octave>3</octave>
    </pitch>
  <duration>1</duration>
  
  <voice>1</voice>
  <type>quarter</type>
  
  <stem>down</stem>
  <notations>
    
  </notations>
  </note>
<note>
  <pitch>
    <step>D</step>
    <alter>0</alter>
    <octave>4</octave>
    </pitch>
  <duration>1</duration>
  
  <voice>1</voice>
  <type>quarter</type>
  
  <stem>down</stem>
  <notations>
    
  </notations>
  </note>
</measure>
<measure number="22">
<attributes>


  </attributes>
<note>
  <pitch>
    <step>C</step>
    <alter>1</alter>
    <octave>4</octave>
    </pitch>
  <duration>1</duration>
  
  <voice>1</voice>
  <type>quarter</type>
  
  <stem>down</stem>
  <notations>
    
  </notations>
  </note>
<note>
  <pitch>
    <step>D</step>
    <alter>0</alter>
    <octave>4</octave>
    </pitch>
  <duration>1</duration>
  
  <voice>1</voice>
  <type>quarter</type>
  
  <stem>down</stem>
  <notations>
    
  </notations>
  </note>
<note>
  <pitch>
    <step>E</step>
    <alter>0</alter>
    <octave>4</octave>
    </pitch>
  <duration>1</duration>
  
  <voice>1</voice>
  <type>quarter</type>
  
  <stem>down</stem>
  <notations>
    
  </notations>
  </note>
<note>
  <pitch>
    <step>F</step>
    <alter>0</alter>
    <octave>4</octave>
    </pitch>
  <duration>1</duration>
  
  <voice>1</voice>
  <type>quarter</type>
  
  <stem>down</stem>
  <notations>
    
  </notations>
  </note>
</measure>
<measure number="23">
<attributes>


  </attributes>
<note>
  <pitch>
    <step>E</step>
    <alter>0</alter>
    <octave>4</octave>
    </pitch>
  <duration>1</duration>
  
  <voice>1</voice>
  <type>quarter</type>
  
  <stem>down</stem>
  <notations>
    
  </notations>
  </note>
<note>
  <pitch>
    <step>D</step>
    <alter>0</alter>
    <octave>4</octave>
    </pitch>
  <duration>1</duration>
  
  <voice>1</voice>
  <type>quarter</type>
  
  <stem>down</stem>
  <notations>
    
  </notations>
  </note>
<note>
  <pitch>
    <step>G</step>
    <alter>0</alter>
    <octave>4</octave>
    </pitch>
  <duration>1</duration>
  
  <voice>1</voice>
  <type>quarter</type>
  
  <stem>down</stem>
  <notations>
    
  </notations>
  </note>
<note>
  <pitch>
    <step>F</step>
    <alter>0</alter>
    <octave>4</octave>
    </pitch>
  <duration>1</duration>
  
  <voice>1</voice>
  <type>quarter</type>
  
  <stem>down</stem>
  <notations>
    
  </notations>
  </note>
</measure>
<measure number="24">
<attributes>


  </attributes>
<note>
  <pitch>
    <step>E</step>
    <alter>0</alter>
    <octave>4</octave>
    </pitch>
  <duration>1</duration>
  
  <voice>1</voice>
  <type>quarter</type>
  
  <stem>down</stem>
  <notations>
    
  </notations>
  </note>
<note>
  <pitch>
    <step>D</step>
    <alter>0</alter>
    <octave>4</octave>
    </pitch>
  <duration>1</duration>
  
  <voice>1</voice>
  <type>quarter</type>
  
  <stem>down</stem>
  <notations>
    
  </notations>
  </note>
<note>
  <pitch>
    <step>A</step>
    <alter>0</alter>
    <octave>4</octave>
    </pitch>
  <duration>1</duration>
  
  <voice>1</voice>
  <type>quarter</type>
  
  <stem>down</stem>
  <notations>
    
  </notations>
  </note>
<note>
  <pitch>
    <step>G</step>
    <alter>0</alter>
    <octave>4</octave>
    </pitch>
  <duration>1</duration>
  
  <voice>1</voice>
  <type>quarter</type>
  
  <stem>down</stem>
  <notations>
    
  </notations>
  </note>
</measure>
<measure number="25">
<attributes>


  </attributes>
<note>
  <pitch>
    <step>F</step>
    <alter>0</alter>
    <octave>4</octave>
    </pitch>
  <duration>1</duration>
  
  <voice>1</voice>
  <type>quarter</type>
  
  <stem>down</stem>
  <notations>
    
  </notations>
  </note>
<note>
  <pitch>
    <step>E</step>
    <alter>0</alter>
    <octave>4</octave>
    </pitch>
  <duration>1</duration>
  
  <voice>1</voice>
  <type>quarter</type>
  
  <stem>down</stem>
  <notations>
    
  </notations>
  </note>
<note>
  <pitch>
    <step>D</step>
    <alter>0</alter>
    <octave>4</octave>
    </pitch>
  <duration>1</duration>
  
  <voice>1</voice>
  <type>quarter</type>
  
  <stem>down</stem>
  <notations>
    
  </notations>
  </note>
<note>
  <pitch>
    <step>E</step>
    <alter>0</alter>
    <octave>4</octave>
    </pitch>
  <duration>1</duration>
  
  <voice>1</voice>
  <type>quarter</type>
  
  <stem>down</stem>
  <notations>
    
  </notations>
  </note>
</measure>
<measure number="26">
<attributes>


  </attributes>
<note>
  <pitch>
    <step>C</step>
    <alter>0</alter>
    <octave>4</octave>
    </pitch>
  <duration>1</duration>
  
  <voice>1</voice>
  <type>quarter</type>
  
  <stem>down</stem>
  <notations>
    
  </notations>
  </note>
<note>
  <pitch>
    <step>C</step>
    <alter>0</alter>
    <octave>4</octave>
    </pitch>
  <duration>1</duration>
  
  <voice>1</voice>
  <type>quarter</type>
  
  <stem>down</stem>
  <notations>
    
  </notations>
  </note>
<note>
  <pitch>
    <step>E</step>
    <alter>0</alter>
    <octave>4</octave>
    </pitch>
  <duration>1</duration>
  
  <voice>1</voice>
  <type>quarter</type>
  
  <stem>down</stem>
  <notations>
    
  </notations>
  </note>
<note>
  <pitch>
    <step>E</step>
    <alter>0</alter>
    <octave>4</octave>
    </pitch>
  <duration>1</duration>
  
  <voice>1</voice>
  <type>quarter</type>
  
  <stem>down</stem>
  <notations>
    
  </notations>
  </note>
</measure>
<measure number="27">
<attributes>


  </attributes>
<note>
  <pitch>
    <step>F</step>
    <alter>1</alter>
    <octave>4</octave>
    </pitch>
  <duration>1</duration>
  
  <voice>1</voice>
  <type>quarter</type>
  
  <stem>down</stem>
  <notations>
    
  </notations>
  </note>
<note>
  <pitch>
    <step>C</step>
    <alter>0</alter>
    <octave>4</octave>
    </pitch>
  <duration>1</duration>
  
  <voice>1</voice>
  <type>quarter</type>
  
  <stem>down</stem>
  <notations>
    
  </notations>
  </note>
<note>
  <pitch>
    <step>B</step>
    <alter>-1</alter>
    <octave>3</octave>
    </pitch>
  <duration>1</duration>
  
  <voice>1</voice>
  <type>quarter</type>
  
  <stem>down</stem>
  <notations>
    
  </notations>
  </note>
<note>
  <pitch>
    <step>D</step>
    <alter>0</alter>
    <octave>4</octave>
    </pitch>
  <duration>1</duration>
  
  <voice>1</voice>
  <type>quarter</type>
  
  <stem>down</stem>
  <notations>
    
  </notations>
  </note>
</measure>
<measure number="28">
<attributes>


  </attributes>
<note>
  <pitch>
    <step>C</step>
    <alter>1</alter>
    <octave>4</octave>
    </pitch>
  <duration>1</duration>
  
  <voice>1</voice>
  <type>quarter</type>
  
  <stem>down</stem>
  <notations>
    
  </notations>
  </note>
<note>
  <pitch>
    <step>D</step>
    <alter>0</alter>
    <octave>4</octave>
    </pitch>
  <duration>1</duration>
  
  <voice>1</voice>
  <type>quarter</type>
  
  <stem>down</stem>
  <notations>
    
  </notations>
  </note>
<note>
  <pitch>
    <step>E</step>
    <alter>0</alter>
    <octave>4</octave>
    </pitch>
  <duration>1</duration>
  
  <voice>1</voice>
  <type>quarter</type>
  
  <stem>down</stem>
  <notations>
    
  </notations>
  </note>
<note>
  <pitch>
    <step>F</step>
    <alter>0</alter>
    <octave>4</octave>
    </pitch>
  <duration>1</duration>
  
  <voice>1</voice>
  <type>quarter</type>
  
  <stem>down</stem>
  <notations>
    
  </notations>
  </note>
</measure>
<measure number="29">
<attributes>


  </attributes>
<note>
  <pitch>
    <step>E</step>
    <alter>0</alter>
    <octave>4</octave>
    </pitch>
  <duration>1</duration>
  
  <voice>1</voice>
  <type>quarter</type>
  
  <stem>down</stem>
  <notations>
    
  </notations>
  </note>
<note>
  <pitch>
    <step>D</step>
    <alter>0</alter>
    <octave>4</octave>
    </pitch>
  <duration>1</duration>
  
  <voice>1</voice>
  <type>quarter</type>
  
  <stem>down</stem>
  <notations>
    
  </notations>
  </note>
<note>
  <pitch>
    <step>G</step>
    <alter>0</alter>
    <octave>4</octave>
    </pitch>
  <duration>1</duration>
  
  <voice>1</voice>
  <type>quarter</type>
  
  <stem>down</stem>
  <notations>
    
  </notations>
  </note>
<note>
  <pitch>
    <step>F</step>
    <alter>0</alter>
    <octave>4</octave>
    </pitch>
  <duration>1</duration>
  
  <voice>1</voice>
  <type>quarter</type>
  
  <stem>down</stem>
  <notations>
    
  </notations>
  </note>
</measure>
<measure number="30">
<attributes>


  </attributes>
<note>
  <pitch>
    <step>E</step>
    <alter>0</alter>
    <octave>4</octave>
    </pitch>
  <duration>1</duration>
  
  <voice>1</voice>
  <type>quarter</type>
  
  <stem>down</stem>
  <notations>
    
  </notations>
  </note>
<note>
  <pitch>
    <step>D</step>
    <alter>0</alter>
    <octave>4</octave>
    </pitch>
  <duration>1</duration>
  
  <voice>1</voice>
  <type>quarter</type>
  
  <stem>down</stem>
  <notations>
    
  </notations>
  </note>
<note>
  <pitch>
    <step>A</step>
    <alter>0</alter>
    <octave>4</octave>
    </pitch>
  <duration>1</duration>
  
  <voice>1</voice>
  <type>quarter</type>
  
  <stem>down</stem>
  <notations>
    
  </notations>
  </note>
<note>
  <pitch>
    <step>G</step>
    <alter>0</alter>
    <octave>4</octave>
    </pitch>
  <duration>1</duration>
  
  <voice>1</voice>
  <type>quarter</type>
  
  <stem>down</stem>
  <notations>
    
  </notations>
  </note>
</measure>
<measure number="31">
<attributes>


  </attributes>
<note>
  <pitch>
    <step>F</step>
    <alter>0</alter>
    <octave>4</octave>
    </pitch>
  <duration>1</duration>
  
  <voice>1</voice>
  <type>quarter</type>
  
  <stem>down</stem>
  <notations>
    
  </notations>
  </note>
<note>
  <pitch>
    <step>E</step>
    <alter>0</alter>
    <octave>4</octave>
    </pitch>
  <duration>1</duration>
  
  <voice>1</voice>
  <type>quarter</type>
  
  <stem>down</stem>
  <notations>
    
  </notations>
  </note>
<note>
  <pitch>
    <step>D</step>
    <alter>0</alter>
    <octave>4</octave>
    </pitch>
  <duration>1</duration>
  
  <voice>1</voice>
  <type>quarter</type>
  
  <stem>down</stem>
  <notations>
    
  </notations>
  </note>
<note>
  <pitch>
    <step>E</step>
    <alter>0</alter>
    <octave>4</octave>
    </pitch>
  <duration>1</duration>
  
  <voice>1</voice>
  <type>quarter</type>
  
  <stem>down</stem>
  <notations>
    
  </notations>
  </note>
</measure>
<measure number="32">
<attributes>


  </attributes>
<note>
  <pitch>
    <step>D</step>
    <alter>0</alter>
    <octave>4</octave>
    </pitch>
  <duration>1</duration>
  
  <voice>1</voice>
  <type>quarter</type>
  
  <stem>down</stem>
  <notations>
    
  </notations>
  </note>
<note>
  <pitch>
    <step>D</step>
    <alter>0</alter>
    <octave>4</octave>
    </pitch>
  <duration>1</duration>
  
  <voice>1</voice>
  <type>quarter</type>
  
  <stem>down</stem>
  <notations>
    
  </notations>
  </note>
<note>
  <pitch>
    <step>E</step>
    <alter>0</alter>
    <octave>4</octave>
    </pitch>
  <duration>1</duration>
  
  <voice>1</voice>
  <type>quarter</type>
  
  <stem>down</stem>
  <notations>
    
  </notations>
  </note>
<note>
  <pitch>
    <step>E</step>
    <alter>0</alter>
    <octave>4</octave>
    </pitch>
  <duration>1</duration>
  
  <voice>1</voice>
  <type>quarter</type>
  
  <stem>down</stem>
  <notations>
    
  </notations>
  </note>
</measure>
<measure number="33">
<attributes>


  </attributes>
<note>
  <pitch>
    <step>E</step>
    <alter>0</alter>
    <octave>4</octave>
    </pitch>
  <duration>1</duration>
  
  <voice>1</voice>
  <type>quarter</type>
  
  <stem>down</stem>
  <notations>
    
  </notations>
  </note>
<note>
  <pitch>
    <step>E</step>
    <alter>0</alter>
    <octave>4</octave>
    </pitch>
  <duration>1</duration>
  
  <voice>1</voice>
  <type>quarter</type>
  
  <stem>down</stem>
  <notations>
    
  </notations>
  </note>
<note>
  <pitch>
    <step>F</step>
    <alter>1</alter>
    <octave>4</octave>
    </pitch>
  <duration>1</duration>
  
  <voice>1</voice>
  <type>quarter</type>
  
  <stem>down</stem>
  <notations>
    
  </notations>
  </note>
<note>
  <pitch>
    <step>F</step>
    <alter>1</alter>
    <octave>4</octave>
    </pitch>
  <duration>1</duration>
  
  <voice>1</voice>
  <type>quarter</type>
  
  <stem>down</stem>
  <notations>
    
  </notations>
  </note>
</measure>
<measure number="34">
<attributes>


  </attributes>
<note>
  <pitch>
    <step>G</step>
    <alter>0</alter>
    <octave>4</octave>
    </pitch>
  <duration>2</duration>
  
  <voice>1</voice>
  <type>half</type>
  
  <stem>down</stem>
  <notations>
    
  </notations>
  </note>
<note>
  <pitch>
    <step>D</step>
    <alter>0</alter>
    <octave>4</octave>
    </pitch>
  <duration>2</duration>
  
  <voice>1</voice>
  <type>half</type>
  
  <stem>down</stem>
  <notations>
    
  </notations>
  </note>
</measure>
<measure number="35">
<attributes>


  </attributes>
<note>
  <pitch>
    <step>B</step>
    <alter>-1</alter>
    <octave>3</octave>
    </pitch>
  <duration>2</duration>
  
  <voice>1</voice>
  <type>half</type>
  
  <stem>down</stem>
  <notations>
    
  </notations>
  </note>
<note>
  <pitch>
    <step>B</step>
    <alter>-1</alter>
    <octave>3</octave>
    </pitch>
  <duration>2</duration>
  
  <voice>1</voice>
  <type>half</type>
  
  <stem>down</stem>
  <notations>
    
  </notations>
  </note>
</measure>
<measure number="36">
<attributes>


  </attributes>
<note>
  <pitch>
    <step>A</step>
    <alter>0</alter>
    <octave>3</octave>
    </pitch>
  <duration>2</duration>
  
  <voice>1</voice>
  <type>half</type>
  
  <stem>down</stem>
  <notations>
    
  </notations>
  </note>
<note>
  <pitch>
    <step>B</step>
    <alter>0</alter>
    <octave>3</octave>
    </pitch>
  <duration>1</duration>
  
  <voice>1</voice>
  <type>quarter</type>
  
  <stem>down</stem>
  <notations>
    
  </notations>
  </note>
<note>
  <pitch>
    <step>C</step>
    <alter>1</alter>
    <octave>4</octave>
    </pitch>
  <duration>1</duration>
  
  <voice>1</voice>
  <type>quarter</type>
  
  <stem>down</stem>
  <notations>
    
  </notations>
  </note>
</measure>
<measure number="37">
<attributes>


  </attributes>
<note>
  <pitch>
    <step>E</step>
    <alter>0</alter>
    <octave>4</octave>
    </pitch>
  <duration>1</duration>
  
  <voice>1</voice>
  <type>quarter</type>
  
  <stem>down</stem>
  <notations>
    
  </notations>
  </note>
<note>
  <pitch>
    <step>E</step>
    <alter>0</alter>
    <octave>4</octave>
    </pitch>
  <duration>1</duration>
  
  <voice>1</voice>
  <type>quarter</type>
  
  <stem>down</stem>
  <notations>
    
  </notations>
  </note>
<note>
  <pitch>
    <step>F</step>
    <alter>1</alter>
    <octave>4</octave>
    </pitch>
  <duration>1</duration>
  
  <voice>1</voice>
  <type>quarter</type>
  
  <stem>down</stem>
  <notations>
    
  </notations>
  </note>
<note>
  <pitch>
    <step>F</step>
    <alter>1</alter>
    <octave>4</octave>
    </pitch>
  <duration>1</duration>
  
  <voice>1</voice>
  <type>quarter</type>
  
  <stem>down</stem>
  <notations>
    
  </notations>
  </note>
</measure>
<measure number="38">
<attributes>


  </attributes>
<note>
  <pitch>
    <step>G</step>
    <alter>0</alter>
    <octave>4</octave>
    </pitch>
  <duration>2</duration>
  
  <voice>1</voice>
  <type>half</type>
  
  <stem>down</stem>
  <notations>
    
  </notations>
  </note>
<note>
  <pitch>
    <step>D</step>
    <alter>0</alter>
    <octave>4</octave>
    </pitch>
  <duration>2</duration>
  
  <voice>1</voice>
  <type>half</type>
  
  <stem>down</stem>
  <notations>
    
  </notations>
  </note>
</measure>
<measure number="39">
<attributes>


  </attributes>
<note>
  <pitch>
    <step>D</step>
    <alter>0</alter>
    <octave>4</octave>
    </pitch>
  <duration>2</duration>
  
  <voice>1</voice>
  <type>half</type>
  
  <stem>down</stem>
  <notations>
    
  </notations>
  </note>
<note>
  <pitch>
    <step>G</step>
    <alter>0</alter>
    <octave>3</octave>
    </pitch>
  <duration>1</duration>
  
  <voice>1</voice>
  <type>quarter</type>
  
  <stem>down</stem>
  <notations>
    
  </notations>
  </note>
<note>
  <pitch>
    <step>C</step>
    <alter>0</alter>
    <octave>4</octave>
    </pitch>
  <duration>1</duration>
  
  <voice>1</voice>
  <type>quarter</type>
  
  <stem>down</stem>
  <notations>
    
  </notations>
  </note>
</measure>
<measure number="40">
<attributes>


  </attributes>
<note>
  <pitch>
    <step>A</step>
    <alter>0</alter>
    <octave>3</octave>
    </pitch>
  <duration>4</duration>
  
  <voice>1</voice>
  <type>whole</type>
  
  <stem>down</stem>
  <notations>
    
  </notations>
  </note>
</measure>
</part>
<part id="five">
  <measure number="1">
<attributes>


  </attributes>

</measure>
<measure number="2">
<attributes>


  </attributes>

</measure>
<measure number="3">
<attributes>


  </attributes>

</measure>
<measure number="4">
<attributes>


  </attributes>

</measure>
<measure number="5">
<attributes>


  </attributes>

</measure>
<measure number="6">
<attributes>


  </attributes>

</measure>
<measure number="7">
<attributes>


  </attributes>

</measure>
<measure number="8">
<attributes>


  </attributes>

</measure>
<measure number="9">
<attributes>


  </attributes>

</measure>
<measure number="10">
<attributes>


  </attributes>

</measure>
<measure number="11">
<attributes>


  </attributes>

</measure>
<measure number="12">
<attributes>


  </attributes>

</measure>
<measure number="13">
<attributes>


  </attributes>

</measure>
<measure number="14">
<attributes>


  </attributes>

</measure>
<measure number="15">
<attributes>


  </attributes>

</measure>
<measure number="16">
<attributes>


  </attributes>

</measure>
<measure number="17">
<attributes>


  </attributes>

</measure>
<measure number="18">
<attributes>


  </attributes>

</measure>
<measure number="19">
<attributes>


  </attributes>

</measure>
<measure number="20">
<attributes>


  </attributes>

</measure>
<measure number="21">
<attributes>


  </attributes>

</measure>
<measure number="22">
<attributes>


  </attributes>

</measure>
<measure number="23">
<attributes>


  </attributes>

</measure>
<measure number="24">
<attributes>


  </attributes>

</measure>
<measure number="25">
<attributes>


  </attributes>

</measure>
<measure number="26">
<attributes>


  </attributes>

</measure>
<measure number="27">
<attributes>


  </attributes>

</measure>
<measure number="28">
<attributes>


  </attributes>

</measure>
<measure number="29">
<attributes>


  </attributes>

</measure>
<measure number="30">
<attributes>


  </attributes>

</measure>
<measure number="31">
<attributes>


  </attributes>

</measure>
<measure number="32">
<attributes>


  </attributes>

</measure>
<measure number="33">
<attributes>


  </attributes>
<note>
  <pitch>
    <step>D</step>
    <alter>0</alter>
    <octave>4</octave>
    </pitch>
  <duration>1</duration>
  
  <voice>1</voice>
  <type>quarter</type>
  
  <stem>down</stem>
  <notations>
    
  </notations>
  </note>
<note>
  <pitch>
    <step>D</step>
    <alter>0</alter>
    <octave>4</octave>
    </pitch>
  <duration>1</duration>
  
  <voice>1</voice>
  <type>quarter</type>
  
  <stem>down</stem>
  <notations>
    
  </notations>
  </note>
<note>
  <pitch>
    <step>C</step>
    <alter>0</alter>
    <octave>4</octave>
    </pitch>
  <duration>1</duration>
  
  <voice>1</voice>
  <type>quarter</type>
  
  <stem>down</stem>
  <notations>
    
  </notations>
  </note>
<note>
  <pitch>
    <step>C</step>
    <alter>0</alter>
    <octave>4</octave>
    </pitch>
  <duration>1</duration>
  
  <voice>1</voice>
  <type>quarter</type>
  
  <stem>down</stem>
  <notations>
    
  </notations>
  </note>
</measure>
<measure number="34">
<attributes>


  </attributes>
<note>
  <pitch>
    <step>B</step>
    <alter>0</alter>
    <octave>3</octave>
    </pitch>
  <duration>2</duration>
  
  <voice>1</voice>
  <type>half</type>
  
  <stem>down</stem>
  <notations>
    
  </notations>
  </note>
<note>
  <pitch>
    <step>B</step>
    <alter>-1</alter>
    <octave>3</octave>
    </pitch>
  <duration>2</duration>
  
  <voice>1</voice>
  <type>half</type>
  
  <stem>down</stem>
  <notations>
    
  </notations>
  </note>
</measure>
<measure number="35">
<attributes>


  </attributes>
<note>
  <pitch>
    <step>A</step>
    <alter>0</alter>
    <octave>3</octave>
    </pitch>
  <duration>2</duration>
  
  <voice>1</voice>
  <type>half</type>
  
  <stem>down</stem>
  <notations>
    
  </notations>
  </note>
<note>
  <pitch>
    <step>G</step>
    <alter>0</alter>
    <octave>3</octave>
    </pitch>
  <duration>2</duration>
  
  <voice>1</voice>
  <type>half</type>
  
  <stem>down</stem>
  <notations>
    
  </notations>
  </note>
</measure>
<measure number="36">
<attributes>


  </attributes>
<note>
  <pitch>
    <step>F</step>
    <alter>0</alter>
    <octave>3</octave>
    </pitch>
  <duration>2</duration>
  
  <voice>1</voice>
  <type>half</type>
  
  <stem>down</stem>
  <notations>
    
  </notations>
  </note>
<note>
  <pitch>
    <step>G</step>
    <alter>0</alter>
    <octave>3</octave>
    </pitch>
  <duration>1</duration>
  
  <voice>1</voice>
  <type>quarter</type>
  
  <stem>down</stem>
  <notations>
    
  </notations>
  </note>
<note>
  <pitch>
    <step>A</step>
    <alter>0</alter>
    <octave>3</octave>
    </pitch>
  <duration>1</duration>
  
  <voice>1</voice>
  <type>quarter</type>
  
  <stem>down</stem>
  <notations>
    
  </notations>
  </note>
</measure>
<measure number="37">
<attributes>


  </attributes>
<note>
  <pitch>
    <step>D</step>
    <alter>0</alter>
    <octave>4</octave>
    </pitch>
  <duration>1</duration>
  
  <voice>1</voice>
  <type>quarter</type>
  
  <stem>down</stem>
  <notations>
    
  </notations>
  </note>
<note>
  <pitch>
    <step>D</step>
    <alter>0</alter>
    <octave>4</octave>
    </pitch>
  <duration>1</duration>
  
  <voice>1</voice>
  <type>quarter</type>
  
  <stem>down</stem>
  <notations>
    
  </notations>
  </note>
<note>
  <pitch>
    <step>D</step>
    <alter>0</alter>
    <octave>4</octave>
    </pitch>
  <duration>1</duration>
  
  <voice>1</voice>
  <type>quarter</type>
  
  <stem>down</stem>
  <notations>
    
  </notations>
  </note>
<note>
  <pitch>
    <step>D</step>
    <alter>0</alter>
    <octave>4</octave>
    </pitch>
  <duration>1</duration>
  
  <voice>1</voice>
  <type>quarter</type>
  
  <stem>down</stem>
  <notations>
    
  </notations>
  </note>
</measure>
<measure number="38">
<attributes>


  </attributes>
<note>
  <pitch>
    <step>C</step>
    <alter>0</alter>
    <octave>4</octave>
    </pitch>
  <duration>2</duration>
  
  <voice>1</voice>
  <type>half</type>
  
  <stem>down</stem>
  <notations>
    
  </notations>
  </note>
<note>
  <pitch>
    <step>B</step>
    <alter>-1</alter>
    <octave>3</octave>
    </pitch>
  <duration>2</duration>
  
  <voice>1</voice>
  <type>half</type>
  
  <stem>down</stem>
  <notations>
    
  </notations>
  </note>
</measure>
<measure number="39">
<attributes>


  </attributes>
<note>
  <pitch>
    <step>B</step>
    <alter>-1</alter>
    <octave>3</octave>
    </pitch>
  <duration>2</duration>
  
  <voice>1</voice>
  <type>half</type>
  
  <stem>down</stem>
  <notations>
    
  </notations>
  </note>
<note>
  <pitch>
    <step>E</step>
    <alter>0</alter>
    <octave>3</octave>
    </pitch>
  <duration>2</duration>
  
  <voice>1</voice>
  <type>half</type>
  
  <stem>down</stem>
  <notations>
    
  </notations>
  </note>
</measure>
<measure number="40">
<attributes>


  </attributes>
<note>
  <pitch>
    <step>F</step>
    <alter>1</alter>
    <octave>3</octave>
    </pitch>
  <duration>4</duration>
  
  <voice>1</voice>
  <type>whole</type>
  
  <stem>down</stem>
  <notations>
    
  </notations>
  </note>
</measure>
</part>
<part id="three">
  <measure number="1">
<attributes>


  </attributes>
<note>
  <pitch>
    <step>D</step>
    <alter>0</alter>
    <octave>2</octave>
    </pitch>
  <duration>4</duration>
  
  <voice>1</voice>
  <type>whole</type>
  
  <stem>down</stem>
  <notations>
    
  </notations>
  </note>
</measure>
<measure number="2">
<attributes>


  </attributes>
<note>
  <pitch>
    <step>D</step>
    <alter>0</alter>
    <octave>2</octave>
    </pitch>
  <duration>4</duration>
  
  <voice>1</voice>
  <type>whole</type>
  
  <stem>down</stem>
  <notations>
    
  </notations>
  </note>
</measure>
<measure number="3">
<attributes>


  </attributes>
<note>
  <pitch>
    <step>D</step>
    <alter>0</alter>
    <octave>2</octave>
    </pitch>
  <duration>4</duration>
  
  <voice>1</voice>
  <type>whole</type>
  
  <stem>down</stem>
  <notations>
    
  </notations>
  </note>
</measure>
<measure number="4">
<attributes>


  </attributes>
<note>
  <pitch>
    <step>D</step>
    <alter>0</alter>
    <octave>2</octave>
    </pitch>
  <duration>4</duration>
  
  <voice>1</voice>
  <type>whole</type>
  
  <stem>down</stem>
  <notations>
    
  </notations>
  </note>
</measure>
<measure number="5">
<attributes>


  </attributes>
<note>
  <pitch>
    <step>D</step>
    <alter>0</alter>
    <octave>2</octave>
    </pitch>
  <duration>4</duration>
  
  <voice>1</voice>
  <type>whole</type>
  
  <stem>down</stem>
  <notations>
    
  </notations>
  </note>
</measure>
<measure number="6">
<attributes>


  </attributes>
<note>
  <pitch>
    <step>D</step>
    <alter>0</alter>
    <octave>2</octave>
    </pitch>
  <duration>4</duration>
  
  <voice>1</voice>
  <type>whole</type>
  
  <stem>down</stem>
  <notations>
    
  </notations>
  </note>
</measure>
<measure number="7">
<attributes>


  </attributes>
<note>
  <pitch>
    <step>D</step>
    <alter>0</alter>
    <octave>2</octave>
    </pitch>
  <duration>4</duration>
  
  <voice>1</voice>
  <type>whole</type>
  
  <stem>down</stem>
  <notations>
    
  </notations>
  </note>
</measure>
<measure number="8">
<attributes>


  </attributes>
<note>
  <pitch>
    <step>D</step>
    <alter>0</alter>
    <octave>2</octave>
    </pitch>
  <duration>4</duration>
  
  <voice>1</voice>
  <type>whole</type>
  
  <stem>down</stem>
  <notations>
    
  </notations>
  </note>
</measure>
<measure number="9">
<attributes>


  </attributes>
<note>
  <pitch>
    <step>D</step>
    <alter>0</alter>
    <octave>2</octave>
    </pitch>
  <duration>4</duration>
  
  <voice>1</voice>
  <type>whole</type>
  
  <stem>down</stem>
  <notations>
    
  </notations>
  </note>
</measure>
<measure number="10">
<attributes>


  </attributes>
<note>
  <pitch>
    <step>D</step>
    <alter>0</alter>
    <octave>2</octave>
    </pitch>
  <duration>4</duration>
  
  <voice>1</voice>
  <type>whole</type>
  
  <stem>down</stem>
  <notations>
    
  </notations>
  </note>
</measure>
<measure number="11">
<attributes>


  </attributes>
<note>
  <pitch>
    <step>D</step>
    <alter>0</alter>
    <octave>2</octave>
    </pitch>
  <duration>4</duration>
  
  <voice>1</voice>
  <type>whole</type>
  
  <stem>down</stem>
  <notations>
    
  </notations>
  </note>
</measure>
<measure number="12">
<attributes>


  </attributes>
<note>
  <pitch>
    <step>D</step>
    <alter>0</alter>
    <octave>2</octave>
    </pitch>
  <duration>4</duration>
  
  <voice>1</voice>
  <type>whole</type>
  
  <stem>down</stem>
  <notations>
    
  </notations>
  </note>
</measure>
<measure number="13">
<attributes>


  </attributes>
<note>
  <pitch>
    <step>D</step>
    <alter>0</alter>
    <octave>2</octave>
    </pitch>
  <duration>4</duration>
  
  <voice>1</voice>
  <type>whole</type>
  
  <stem>down</stem>
  <notations>
    
  </notations>
  </note>
</measure>
<measure number="14">
<attributes>


  </attributes>
<note>
  <pitch>
    <step>D</step>
    <alter>0</alter>
    <octave>2</octave>
    </pitch>
  <duration>4</duration>
  
  <voice>1</voice>
  <type>whole</type>
  
  <stem>down</stem>
  <notations>
    
  </notations>
  </note>
</measure>
<measure number="15">
<attributes>


  </attributes>
<note>
  <pitch>
    <step>D</step>
    <alter>0</alter>
    <octave>2</octave>
    </pitch>
  <duration>4</duration>
  
  <voice>1</voice>
  <type>whole</type>
  
  <stem>down</stem>
  <notations>
    
  </notations>
  </note>
</measure>
<measure number="16">
<attributes>


  </attributes>
<note>
  <pitch>
    <step>D</step>
    <alter>0</alter>
    <octave>2</octave>
    </pitch>
  <duration>4</duration>
  
  <voice>1</voice>
  <type>whole</type>
  
  <stem>down</stem>
  <notations>
    
  </notations>
  </note>
</measure>
<measure number="17">
<attributes>


  </attributes>
<note>
  <pitch>
    <step>D</step>
    <alter>0</alter>
    <octave>2</octave>
    </pitch>
  <duration>4</duration>
  
  <voice>1</voice>
  <type>whole</type>
  
  <stem>down</stem>
  <notations>
    
  </notations>
  </note>
</measure>
<measure number="18">
<attributes>


  </attributes>
<note>
  <pitch>
    <step>D</step>
    <alter>0</alter>
    <octave>2</octave>
    </pitch>
  <duration>4</duration>
  
  <voice>1</voice>
  <type>whole</type>
  
  <stem>down</stem>
  <notations>
    
  </notations>
  </note>
</measure>
<measure number="19">
<attributes>


  </attributes>
<note>
  <pitch>
    <step>D</step>
    <alter>0</alter>
    <octave>2</octave>
    </pitch>
  <duration>4</duration>
  
  <voice>1</voice>
  <type>whole</type>
  
  <stem>down</stem>
  <notations>
    
  </notations>
  </note>
</measure>
<measure number="20">
<attributes>


  </attributes>
<note>
  <pitch>
    <step>D</step>
    <alter>0</alter>
    <octave>2</octave>
    </pitch>
  <duration>4</duration>
  
  <voice>1</voice>
  <type>whole</type>
  
  <stem>down</stem>
  <notations>
    
  </notations>
  </note>
</measure>
<measure number="21">
<attributes>


  </attributes>
<note>
  <pitch>
    <step>D</step>
    <alter>0</alter>
    <octave>2</octave>
    </pitch>
  <duration>4</duration>
  
  <voice>1</voice>
  <type>whole</type>
  
  <stem>down</stem>
  <notations>
    
  </notations>
  </note>
</measure>
<measure number="22">
<attributes>


  </attributes>
<note>
  <pitch>
    <step>D</step>
    <alter>0</alter>
    <octave>2</octave>
    </pitch>
  <duration>2</duration>
  
  <voice>1</voice>
  <type>half</type>
  
  <stem>down</stem>
  <notations>
    
  </notations>
  </note>
<note>
  <pitch>
    <step>G</step>
    <alter>0</alter>
    <octave>2</octave>
    </pitch>
  <duration>2</duration>
  
  <voice>1</voice>
  <type>half</type>
  
  <stem>down</stem>
  <notations>
    
  </notations>
  </note>
</measure>
<measure number="23">
<attributes>


  </attributes>
<note>
  <pitch>
    <step>D</step>
    <alter>0</alter>
    <octave>2</octave>
    </pitch>
  <duration>4</duration>
  
  <voice>1</voice>
  <type>whole</type>
  
  <stem>down</stem>
  <notations>
    
  </notations>
  </note>
</measure>
<measure number="24">
<attributes>


  </attributes>
<note>
  <pitch>
    <step>D</step>
    <alter>0</alter>
    <octave>2</octave>
    </pitch>
  <duration>4</duration>
  
  <voice>1</voice>
  <type>whole</type>
  
  <stem>down</stem>
  <notations>
    
  </notations>
  </note>
</measure>
<measure number="25">
<attributes>


  </attributes>
<note>
  <pitch>
    <step>G</step>
    <alter>0</alter>
    <octave>2</octave>
    </pitch>
  <duration>2</duration>
  
  <voice>1</voice>
  <type>half</type>
  
  <stem>down</stem>
  <notations>
    
  </notations>
  </note>
<note>
  <pitch>
    <step>C</step>
    <alter>0</alter>
    <octave>2</octave>
    </pitch>
  <duration>2</duration>
  
  <voice>1</voice>
  <type>half</type>
  
  <stem>down</stem>
  <notations>
    
  </notations>
  </note>
</measure>
<measure number="26">
<attributes>


  </attributes>
<note>
  <pitch>
    <step>F</step>
    <alter>0</alter>
    <octave>2</octave>
    </pitch>
  <duration>4</duration>
  
  <voice>1</voice>
  <type>whole</type>
  
  <stem>down</stem>
  <notations>
    
  </notations>
  </note>
</measure>
<measure number="27">
<attributes>


  </attributes>
<note>
  <pitch>
    <step>D</step>
    <alter>0</alter>
    <octave>2</octave>
    </pitch>
  <duration>4</duration>
  
  <voice>1</voice>
  <type>whole</type>
  
  <stem>down</stem>
  <notations>
    
  </notations>
  </note>
</measure>
<measure number="28">
<attributes>


  </attributes>
<note>
  <pitch>
    <step>D</step>
    <alter>0</alter>
    <octave>2</octave>
    </pitch>
  <duration>2</duration>
  
  <voice>1</voice>
  <type>half</type>
  
  <stem>down</stem>
  <notations>
    
  </notations>
  </note>
<note>
  <pitch>
    <step>G</step>
    <alter>0</alter>
    <octave>2</octave>
    </pitch>
  <duration>2</duration>
  
  <voice>1</voice>
  <type>half</type>
  
  <stem>down</stem>
  <notations>
    
  </notations>
  </note>
</measure>
<measure number="29">
<attributes>


  </attributes>
<note>
  <pitch>
    <step>D</step>
    <alter>0</alter>
    <octave>2</octave>
    </pitch>
  <duration>4</duration>
  
  <voice>1</voice>
  <type>whole</type>
  
  <stem>down</stem>
  <notations>
    
  </notations>
  </note>
</measure>
<measure number="30">
<attributes>


  </attributes>
<note>
  <pitch>
    <step>D</step>
    <alter>0</alter>
    <octave>2</octave>
    </pitch>
  <duration>4</duration>
  
  <voice>1</voice>
  <type>whole</type>
  
  <stem>down</stem>
  <notations>
    
  </notations>
  </note>
</measure>
<measure number="31">
<attributes>


  </attributes>
<note>
  <pitch>
    <step>B</step>
    <alter>-1</alter>
    <octave>2</octave>
    </pitch>
  <duration>2</duration>
  
  <voice>1</voice>
  <type>half</type>
  
  <stem>down</stem>
  <notations>
    
  </notations>
  </note>
<note>
  <pitch>
    <step>C</step>
    <alter>0</alter>
    <octave>3</octave>
    </pitch>
  <duration>2</duration>
  
  <voice>1</voice>
  <type>half</type>
  
  <stem>down</stem>
  <notations>
    
  </notations>
  </note>
</measure>
<measure number="32">
<attributes>


  </attributes>
<note>
  <pitch>
    <step>D</step>
    <alter>0</alter>
    <octave>3</octave>
    </pitch>
  <duration>4</duration>
  
  <voice>1</voice>
  <type>whole</type>
  
  <stem>down</stem>
  <notations>
    
  </notations>
  </note>
</measure>
<measure number="33">
<attributes>


  </attributes>
<note>
  <pitch>
    <step>D</step>
    <alter>0</alter>
    <octave>2</octave>
    </pitch>
  <duration>4</duration>
  
  <voice>1</voice>
  <type>whole</type>
  
  <stem>down</stem>
  <notations>
    
  </notations>
  </note>
</measure>
<measure number="34">
<attributes>


  </attributes>
<note>
  <pitch>
    <step>G</step>
    <alter>0</alter>
    <octave>2</octave>
    </pitch>
  <duration>4</duration>
  
  <voice>1</voice>
  <type>whole</type>
  
  <stem>down</stem>
  <notations>
    
  </notations>
  </note>
</measure>
<measure number="35">
<attributes>


  </attributes>
<note>
  <pitch>
    <step>B</step>
    <alter>-1</alter>
    <octave>2</octave>
    </pitch>
  <duration>4</duration>
  
  <voice>1</voice>
  <type>whole</type>
  
  <stem>down</stem>
  <notations>
    
  </notations>
  </note>
</measure>
<measure number="36">
<attributes>


  </attributes>
<note>
  <pitch>
    <step>D</step>
    <alter>0</alter>
    <octave>3</octave>
    </pitch>
  <duration>4</duration>
  
  <voice>1</voice>
  <type>whole</type>
  
  <stem>down</stem>
  <notations>
    
  </notations>
  </note>
</measure>
<measure number="37">
<attributes>


  </attributes>
<note>
  <pitch>
    <step>D</step>
    <alter>0</alter>
    <octave>2</octave>
    </pitch>
  <duration>4</duration>
  
  <voice>1</voice>
  <type>whole</type>
  
  <stem>down</stem>
  <notations>
    
  </notations>
  </note>
</measure>
<measure number="38">
<attributes>


  </attributes>
<note>
  <pitch>
    <step>F</step>
    <alter>0</alter>
    <octave>2</octave>
    </pitch>
  <duration>2</duration>
  
  <voice>1</voice>
  <type>half</